<?xml version="1.0" encoding="UTF-8" ?>
<!DOCTYPE svg PUBLIC "-//W3C//DTD SVG 1.1//EN" "http://www.w3.org/Graphics/SVG/1.1/DTD/svg11.dtd">
<svg width="239pt" height="235pt" viewBox="0 0 1222 1204" version="1.1" xmlns="http://www.w3.org/2000/svg">
<path fill="#fefefe" opacity="1.00" d=" M 577.68 101.22 C 628.12 97.21 679.13 101.20 728.47 112.35 C 806.68 130.35 880.48 167.36 941.44 219.58 C 1011.03 278.73 1064.20 357.15 1092.74 443.97 C 1107.89 489.77 1116.49 537.79 1117.74 586.02 C 1117.82 599.34 1117.97 612.66 1117.53 625.98 C 1113.39 713.47 1085.87 799.81 1038.15 873.30 C 1022.77 896.99 1005.64 919.59 986.42 940.30 C 980.53 946.45 974.95 952.88 968.85 958.82 C 941.72 985.20 911.96 1008.97 879.70 1028.79 C 826.37 1061.92 766.66 1084.60 704.90 1095.72 C 610.84 1112.54 511.94 1102.26 423.73 1065.32 C 368.13 1042.41 316.91 1009.11 273.02 968.03 C 261.79 956.92 250.27 946.05 239.97 934.05 C 188.98 876.47 151.38 807.08 131.35 732.80 C 109.37 651.55 108.31 564.78 128.16 482.99 C 148.19 400.33 189.78 323.04 247.72 260.77 C 289.66 215.35 340.11 177.82 395.64 150.66 C 452.45 122.86 514.59 105.90 577.68 101.22 M 600.21 124.01 C 592.74 126.96 588.31 134.82 587.38 142.51 C 585.85 151.24 586.98 160.68 591.63 168.33 C 594.96 173.59 600.55 177.77 606.98 177.87 C 614.65 178.82 622.25 174.45 625.94 167.80 C 629.70 162.23 630.03 155.36 629.63 148.87 C 622.54 148.57 615.46 148.96 608.38 149.33 C 608.48 152.46 608.50 155.60 608.41 158.74 C 611.69 158.78 614.97 158.99 618.23 159.34 C 617.56 163.37 614.41 167.54 610.06 167.68 C 605.87 168.33 601.73 165.68 599.85 162.03 C 596.88 156.66 596.82 150.27 597.42 144.33 C 598.12 139.24 601.38 133.51 607.15 133.43 C 612.07 132.45 615.39 136.76 618.71 139.57 C 621.60 137.51 624.58 135.56 627.18 133.12 C 625.04 129.56 622.33 126.07 618.38 124.45 C 612.63 122.26 606.03 121.88 600.21 124.01 M 534.04 129.38 C 535.35 147.27 539.28 164.89 540.81 182.76 C 545.83 182.64 550.77 181.67 555.75 181.05 C 560.70 180.22 565.77 179.97 570.61 178.52 C 570.12 175.45 569.68 172.38 569.25 169.30 C 562.62 169.53 556.16 171.25 549.56 171.70 C 548.62 167.49 548.28 163.19 548.33 158.89 C 552.16 158.64 555.97 158.17 559.77 157.54 C 559.57 154.46 559.34 151.38 559.23 148.29 C 554.99 148.13 550.75 148.49 546.54 148.96 C 545.70 145.28 545.19 141.52 545.21 137.74 C 551.42 136.91 557.63 136.02 563.86 135.25 C 563.83 131.99 563.61 128.73 563.34 125.47 C 553.51 126.14 543.81 128.18 534.04 129.38 M 648.37 179.23 C 658.29 180.28 668.16 182.00 678.12 182.55 C 678.36 179.26 678.68 175.96 678.45 172.66 C 672.07 172.18 665.71 171.44 659.40 170.48 C 659.81 166.39 660.34 162.32 660.62 158.22 C 664.84 158.36 669.06 158.75 673.29 158.89 C 673.75 155.74 674.01 152.57 674.01 149.39 C 670.20 148.69 666.35 148.35 662.49 148.23 C 662.27 144.27 662.95 140.34 663.62 136.45 C 670.16 137.02 676.60 138.52 683.18 138.68 C 683.65 135.43 684.11 132.17 684.31 128.89 C 674.46 127.94 664.67 126.40 654.82 125.45 C 652.65 143.37 650.59 161.31 648.37 179.23 M 483.23 140.36 C 483.27 144.36 484.54 148.17 485.48 152.01 C 488.95 165.62 492.16 179.30 495.64 192.91 C 505.80 190.84 515.79 187.99 525.88 185.61 C 525.64 182.33 524.74 179.17 523.86 176.03 C 516.69 177.05 509.96 180.16 502.71 180.77 C 499.44 166.55 495.89 152.39 492.19 138.28 C 489.17 138.84 486.19 139.60 483.23 140.36 M 746.48 145.62 C 738.43 146.82 732.55 153.42 729.57 160.62 C 725.19 169.60 723.66 180.97 729.00 189.89 C 732.76 196.50 740.57 199.96 748.01 199.55 C 754.08 199.51 759.49 195.83 763.13 191.18 C 767.83 185.15 770.30 177.59 771.09 170.05 C 771.65 163.07 770.06 155.20 764.49 150.47 C 759.64 146.30 752.79 144.25 746.48 145.62 M 434.77 156.69 C 436.01 163.29 438.92 169.38 440.93 175.76 C 444.40 186.49 448.37 197.07 451.76 207.83 C 458.87 205.85 465.72 203.09 472.75 200.84 C 475.78 199.90 478.74 198.75 481.56 197.29 C 480.64 194.24 479.71 191.19 478.27 188.34 C 471.33 190.14 464.91 193.75 457.79 194.80 C 453.40 181.16 448.54 167.67 443.96 154.09 C 440.72 154.24 437.64 155.25 434.77 156.69 M 800.07 163.27 C 793.19 178.59 785.91 193.73 778.97 209.02 C 778.47 210.13 778.32 211.34 778.09 212.53 C 780.82 213.78 783.58 214.97 786.40 216.04 C 790.07 209.68 792.66 202.77 795.84 196.16 C 800.11 196.98 803.71 199.65 807.87 200.86 C 809.27 197.99 810.56 195.07 811.74 192.10 C 808.02 190.08 804.19 188.30 800.50 186.25 C 802.02 182.92 803.58 179.61 805.13 176.29 C 811.35 178.67 816.98 182.71 823.57 184.03 C 824.80 181.07 826.64 178.23 826.72 174.93 C 821.81 173.10 817.15 170.67 812.36 168.56 C 808.25 166.81 804.48 164.20 800.07 163.27 M 394.61 174.92 C 386.07 177.44 379.91 186.10 380.48 194.99 C 380.17 202.70 383.94 209.81 388.07 216.06 C 391.51 221.39 397.05 225.22 403.18 226.77 C 410.12 228.39 417.88 225.95 422.61 220.60 C 427.78 215.39 428.77 207.37 427.31 200.46 C 425.26 190.93 419.78 181.83 411.42 176.58 C 406.44 173.48 400.10 172.88 394.61 174.92 M 596.32 198.02 C 569.99 199.35 543.73 202.87 518.14 209.29 C 436.24 228.97 360.90 275.18 306.49 339.52 C 260.40 393.51 229.30 460.15 217.53 530.15 C 212.22 559.11 210.98 588.65 211.95 618.03 C 213.33 649.44 218.12 680.77 226.74 711.03 C 246.12 781.48 285.78 846.07 339.24 895.79 C 381.06 934.64 431.27 964.41 485.48 982.30 C 580.44 1013.66 687.15 1009.53 778.60 968.58 C 796.72 960.83 813.86 950.98 830.58 940.61 C 845.77 930.72 860.46 920.03 874.22 908.23 C 936.79 855.11 982.12 782.22 1002.62 702.78 C 1014.32 658.28 1018.24 611.86 1015.01 565.99 C 1013.17 540.64 1008.60 515.53 1002.08 490.97 C 988.44 440.75 964.80 393.29 932.96 352.13 C 895.27 303.19 846.03 263.21 790.30 236.54 C 730.25 207.63 662.82 194.54 596.32 198.02 M 333.48 213.49 C 328.40 220.91 329.72 230.88 333.70 238.47 C 338.28 247.71 346.99 255.84 357.66 256.68 C 363.83 257.35 369.94 254.55 374.15 250.12 C 378.40 246.12 379.51 239.98 379.58 234.39 C 376.30 234.26 373.02 234.33 369.75 234.50 C 368.64 238.02 367.60 242.03 364.22 244.08 C 361.82 246.12 358.38 245.86 355.52 245.18 C 347.89 242.67 342.63 235.43 340.87 227.82 C 339.57 222.84 342.73 217.49 347.37 215.61 C 350.18 214.15 353.31 215.12 356.25 215.48 C 357.95 212.28 359.77 209.02 359.94 205.32 C 350.60 201.26 338.74 204.70 333.48 213.49 M 871.70 208.75 C 866.85 210.77 862.57 215.46 862.75 220.99 C 862.53 229.92 869.84 236.50 871.44 245.00 C 870.88 248.50 866.94 251.77 863.49 249.76 C 857.94 247.86 854.93 242.39 852.98 237.23 C 849.73 238.20 847.11 240.49 844.57 242.62 C 844.55 242.94 844.51 243.60 844.49 243.93 C 846.56 249.24 850.77 253.37 855.22 256.79 C 859.50 259.99 865.11 261.72 870.39 260.25 C 874.77 258.52 878.28 254.77 880.18 250.51 C 882.33 241.96 877.77 233.98 874.35 226.49 C 872.98 224.03 873.10 221.20 873.49 218.52 C 881.00 217.24 886.39 224.66 888.84 230.84 C 891.66 228.97 894.26 226.79 896.76 224.50 C 895.37 218.35 890.36 213.87 885.17 210.75 C 881.25 208.17 876.19 207.55 871.70 208.75 M 923.59 248.67 C 909.23 257.69 894.34 265.83 880.02 274.89 C 882.65 277.13 884.84 280.17 888.04 281.60 C 890.99 280.69 893.45 278.71 896.11 277.20 C 900.22 281.03 904.73 284.42 908.56 288.54 C 908.70 291.93 905.40 294.41 905.23 297.75 C 906.92 300.65 909.83 302.62 912.23 304.92 C 921.41 288.59 928.89 271.35 937.70 254.81 C 934.86 251.85 932.12 248.67 928.71 246.37 C 926.75 246.39 925.22 247.81 923.59 248.67 M 303.83 262.13 C 305.72 264.79 307.93 267.21 310.02 269.72 C 314.15 266.39 318.20 262.95 321.79 259.03 C 319.51 256.88 317.90 252.34 314.40 252.49 C 310.54 255.31 307.28 258.85 303.83 262.13 M 269.79 266.70 C 264.74 272.99 258.25 278.05 253.81 284.84 C 259.13 290.28 264.60 295.58 270.39 300.53 C 277.71 307.66 284.97 314.87 292.82 321.43 C 299.69 314.44 306.31 307.22 312.87 299.93 C 310.75 297.47 308.36 295.27 305.92 293.14 C 301.02 297.59 296.77 302.69 292.25 307.52 C 289.16 304.62 285.93 301.84 283.43 298.39 C 286.26 295.81 288.72 292.86 291.18 289.93 C 289.31 287.41 287.09 285.18 284.78 283.06 C 281.08 285.05 278.90 288.83 276.00 291.74 C 273.58 289.93 271.13 288.10 269.18 285.78 C 268.33 285.06 267.91 283.65 268.76 282.77 C 272.41 278.17 276.95 274.38 280.78 269.94 C 278.64 267.45 276.34 265.10 273.84 262.97 C 272.33 264.03 270.93 265.24 269.79 266.70 M 922.12 315.37 C 923.64 318.16 926.19 320.16 928.27 322.53 C 936.17 317.20 942.55 309.94 949.84 303.84 C 955.88 298.08 962.45 292.91 968.21 286.85 C 966.63 284.00 964.46 281.55 962.04 279.38 C 948.46 291.07 935.48 303.43 922.12 315.37 M 940.85 337.04 C 942.42 339.96 944.35 342.70 946.81 344.97 C 955.92 338.46 964.85 331.70 973.95 325.16 C 970.07 334.57 964.84 343.35 960.36 352.47 C 959.29 354.91 957.45 357.20 957.39 359.95 C 958.83 362.90 961.02 365.39 962.97 368.01 C 969.06 364.16 974.79 359.75 980.63 355.52 C 989.18 348.94 998.14 342.92 1006.61 336.23 C 1004.95 333.55 1003.08 331.01 1001.25 328.45 C 991.72 333.85 983.73 341.55 974.42 347.29 C 979.35 337.34 984.34 327.43 989.47 317.59 C 989.96 316.33 991.20 314.94 990.25 313.58 C 988.63 310.50 986.34 307.85 984.11 305.22 C 969.80 315.97 955.16 326.28 940.85 337.04 M 220.30 326.19 C 226.01 331.40 232.62 335.48 238.62 340.34 C 244.71 345.31 251.20 349.76 257.39 354.62 C 259.29 356.19 261.25 357.72 263.50 358.77 C 266.89 354.69 269.86 350.28 273.07 346.07 C 276.12 341.97 279.57 338.12 281.93 333.56 C 279.62 331.62 277.23 329.79 274.82 327.98 C 269.25 332.70 266.40 339.82 261.18 344.91 C 249.67 336.12 238.14 327.36 226.68 318.52 C 224.12 320.69 222.22 323.47 220.30 326.19 M 1011.17 360.63 C 1011.65 365.39 1015.64 368.79 1016.83 373.35 C 1004.18 380.29 991.51 387.21 979.01 394.42 C 980.07 397.79 982.08 400.73 983.80 403.78 C 989.33 401.56 994.18 397.99 999.50 395.32 C 1007.20 391.42 1014.43 386.67 1022.20 382.92 C 1024.61 386.40 1026.44 390.24 1028.56 393.90 C 1031.38 393.25 1033.97 391.86 1036.35 390.23 C 1037.56 388.72 1036.17 387.00 1035.54 385.58 C 1030.34 376.38 1025.34 367.05 1020.12 357.87 C 1017.22 355.77 1013.95 359.65 1011.17 360.63 M 197.03 363.75 C 195.45 366.33 193.82 368.87 192.20 371.43 C 197.70 375.50 203.87 378.55 209.63 382.24 C 219.12 388.19 228.88 393.72 238.31 399.78 C 243.97 390.78 249.43 381.64 254.60 372.35 C 251.89 370.47 249.00 368.87 245.96 367.62 C 242.05 373.50 239.04 379.92 235.02 385.74 C 223.85 379.33 212.96 372.46 201.95 365.81 C 200.43 364.85 198.74 364.26 197.03 363.75 M 175.95 405.44 C 174.25 409.18 172.44 412.87 171.03 416.73 C 182.64 427.21 194.74 437.12 206.59 447.33 C 209.07 449.21 211.16 451.73 214.12 452.88 C 215.31 449.66 216.87 446.59 218.07 443.37 C 215.69 441.53 213.44 439.54 211.13 437.60 C 212.02 431.76 215.35 426.71 217.62 421.35 C 220.81 421.48 223.97 421.96 227.11 422.55 C 228.86 419.47 230.65 416.30 231.02 412.71 C 228.95 412.36 226.89 411.91 224.80 411.66 C 208.48 409.88 192.28 406.98 175.95 405.44 M 1046.48 440.58 C 1033.34 444.99 1020.07 449.03 1006.99 453.59 C 1007.97 459.07 1010.06 464.25 1011.63 469.57 C 1013.13 474.17 1015.01 479.13 1019.33 481.81 C 1024.74 485.51 1032.02 484.43 1037.53 481.51 C 1041.07 479.80 1042.35 475.83 1043.89 472.52 C 1048.03 473.51 1052.59 473.69 1056.43 471.56 C 1061.99 468.82 1065.18 462.27 1063.85 456.19 C 1062.36 449.74 1059.77 443.58 1058.11 437.16 C 1054.11 437.85 1050.33 439.37 1046.48 440.58 M 151.94 471.09 C 151.19 475.51 152.08 480.47 155.39 483.69 C 159.73 488.37 167.33 489.26 172.71 485.88 C 178.26 481.77 182.16 475.74 187.92 471.87 C 191.34 469.76 196.25 472.95 195.72 476.96 C 196.08 483.24 191.30 487.94 187.21 492.03 C 189.95 494.23 192.81 496.30 195.97 497.87 C 203.43 491.13 207.70 480.43 205.21 470.48 C 202.56 463.79 194.27 460.17 187.43 461.74 C 179.16 464.11 174.33 471.81 167.72 476.71 C 166.14 478.22 163.96 477.41 162.20 476.77 C 162.03 473.68 161.89 470.43 163.27 467.56 C 164.54 464.19 167.27 461.75 169.59 459.11 C 166.77 457.11 163.83 455.29 160.87 453.52 C 155.84 458.03 152.71 464.40 151.94 471.09 M 1020.77 501.78 C 1023.07 511.38 1024.94 521.08 1026.82 530.77 C 1030.12 530.52 1033.37 529.90 1036.62 529.23 C 1036.14 522.51 1033.33 516.19 1033.06 509.45 C 1037.08 508.65 1041.09 507.67 1045.17 507.12 C 1045.94 511.08 1046.90 515.00 1047.81 518.94 C 1051.02 518.42 1054.22 517.75 1057.43 517.14 C 1056.38 513.01 1055.44 508.83 1055.14 504.58 C 1058.77 503.88 1062.40 503.15 1066.06 502.49 C 1067.53 508.86 1068.56 515.32 1070.07 521.68 C 1073.31 521.25 1076.53 520.59 1079.70 519.73 C 1077.86 509.99 1075.63 500.32 1073.65 490.61 C 1056.00 494.20 1038.44 498.26 1020.77 501.78 M 135.81 555.10 C 135.47 559.31 134.65 563.50 134.89 567.75 C 152.23 574.86 169.82 581.31 187.16 588.44 C 187.37 584.76 187.55 581.08 187.65 577.40 C 184.83 576.37 182.04 575.26 179.20 574.32 C 179.03 568.38 179.80 562.48 180.37 556.59 C 183.58 555.94 186.76 555.19 189.97 554.56 C 190.52 551.08 190.47 547.54 190.48 544.03 C 172.23 547.57 154.05 551.50 135.81 555.10 M 1030.82 552.25 C 1030.63 555.63 1030.82 559.02 1031.67 562.31 C 1042.88 561.27 1054.12 560.42 1065.38 560.12 C 1054.44 566.74 1043.42 573.23 1032.56 579.97 C 1033.02 583.41 1032.15 587.47 1033.95 590.49 C 1045.29 590.06 1056.58 588.55 1067.94 588.18 C 1074.40 587.28 1081.04 587.97 1087.40 586.35 C 1086.63 583.34 1086.44 580.24 1086.29 577.15 C 1075.51 577.40 1064.75 578.42 1054.00 579.20 C 1057.07 576.79 1060.47 574.87 1063.79 572.83 C 1070.83 568.80 1077.50 564.16 1084.72 560.44 C 1084.96 556.47 1084.67 552.49 1084.36 548.54 C 1066.52 549.82 1048.67 550.99 1030.82 552.25 M 177.38 600.68 C 177.32 607.96 177.97 615.22 177.88 622.50 C 163.32 622.68 148.78 623.44 134.23 623.92 C 134.20 627.17 134.22 630.43 134.38 633.69 C 152.32 633.34 170.24 632.49 188.17 631.84 C 187.89 621.39 187.31 610.94 187.20 600.49 C 183.92 600.47 180.65 600.52 177.38 600.68 M 1032.63 612.33 C 1032.65 615.43 1032.59 618.53 1032.50 621.63 C 1037.34 621.78 1042.16 622.42 1047.01 622.44 C 1060.14 622.51 1073.25 623.70 1086.38 623.52 C 1086.52 620.23 1086.60 616.94 1086.46 613.66 C 1068.50 613.66 1050.59 611.96 1032.63 612.33 M 1028.84 661.45 C 1028.38 665.69 1027.55 669.90 1027.46 674.18 C 1030.75 674.28 1034.04 674.44 1037.33 674.70 C 1037.97 667.64 1038.99 660.63 1039.80 653.59 C 1054.36 655.01 1068.83 657.38 1083.41 658.64 C 1083.92 655.57 1084.31 652.49 1084.58 649.39 C 1079.31 648.13 1073.90 647.72 1068.55 646.95 C 1056.18 645.60 1043.87 643.83 1031.51 642.42 C 1029.91 648.65 1029.68 655.10 1028.84 661.45 M 184.23 679.59 C 185.36 686.15 187.30 692.57 187.90 699.21 C 183.88 700.00 179.88 700.92 175.83 701.60 C 175.04 697.54 174.09 693.52 173.03 689.53 C 170.06 690.21 167.06 690.77 164.08 691.45 C 164.26 695.62 165.21 699.69 165.79 703.81 C 162.26 704.72 158.67 705.43 155.09 706.10 C 153.13 699.96 152.49 693.51 150.92 687.28 C 147.66 687.35 144.45 687.90 141.31 688.74 C 142.86 698.50 145.12 708.17 147.34 717.80 C 153.50 717.20 159.38 715.11 165.48 714.17 C 176.70 711.81 187.89 709.30 199.13 707.06 L 199.71 706.23 C 198.09 696.80 195.84 687.46 193.83 678.10 C 190.58 678.22 187.35 678.65 184.23 679.59 M 1024.85 690.46 C 1023.00 695.47 1021.98 700.73 1020.59 705.87 C 1018.13 714.94 1021.07 725.62 1028.70 731.38 C 1039.12 739.70 1056.26 741.06 1066.10 731.11 C 1073.55 724.38 1073.43 713.53 1076.74 704.69 C 1069.66 701.85 1062.06 700.68 1054.82 698.34 C 1044.81 695.76 1034.88 692.89 1024.85 690.46 M 168.55 735.58 C 161.66 741.00 158.41 750.36 159.74 758.93 C 161.46 765.30 163.93 771.44 165.78 777.77 C 172.48 776.42 178.69 773.43 185.20 771.45 C 195.70 767.70 206.27 764.19 216.74 760.36 C 215.37 754.88 213.43 749.57 211.47 744.29 C 208.66 737.47 203.06 731.26 195.69 729.48 C 186.37 727.02 176.02 729.60 168.55 735.58 M 1009.15 744.27 C 1007.06 749.85 1004.87 755.38 1002.75 760.94 C 1001.34 764.68 999.35 768.32 999.15 772.40 C 1002.03 773.53 1004.95 774.64 1008.06 775.03 C 1010.20 768.92 1012.71 762.96 1014.97 756.90 C 1018.89 758.48 1022.84 759.98 1026.74 761.62 C 1025.38 765.54 1023.21 769.30 1023.09 773.54 C 1025.84 774.58 1028.58 775.65 1031.34 776.72 C 1033.32 772.97 1034.29 768.75 1036.58 765.15 C 1039.95 766.60 1043.41 767.90 1046.69 769.59 C 1044.46 775.78 1041.18 781.73 1040.17 788.27 C 1043.12 789.29 1046.02 790.79 1049.23 790.80 C 1052.79 781.83 1055.90 772.67 1059.38 763.66 C 1054.30 761.11 1048.85 759.45 1043.62 757.26 C 1032.05 753.15 1020.84 748.03 1009.15 744.27 M 288.41 897.60 C 280.08 899.36 275.39 909.07 278.23 916.87 C 280.33 922.84 286.67 927.20 293.04 926.56 C 300.97 926.64 307.61 918.82 306.70 911.02 C 306.92 901.90 296.92 895.16 288.41 897.60 M 930.33 902.25 C 926.45 903.59 923.13 906.48 921.36 910.20 C 917.78 918.27 922.69 928.83 931.45 930.71 C 940.00 933.08 949.78 926.04 949.55 917.03 C 950.87 907.05 939.56 898.93 930.33 902.25 M 540.17 1023.86 C 536.39 1027.20 531.91 1029.56 527.06 1030.90 C 523.47 1031.47 524.04 1035.87 523.26 1038.56 C 527.16 1038.14 530.96 1037.11 534.74 1036.10 C 532.61 1045.68 529.17 1054.99 527.90 1064.74 C 530.51 1065.39 533.11 1066.12 535.76 1066.66 C 537.54 1061.81 538.15 1056.63 539.75 1051.73 C 541.79 1042.88 544.68 1034.21 545.99 1025.21 C 544.04 1024.74 542.10 1024.31 540.17 1023.86 M 665.12 1033.03 C 662.12 1035.28 661.41 1039.48 661.68 1043.01 C 662.41 1046.48 665.42 1048.65 667.95 1050.83 C 665.83 1053.12 663.23 1055.66 663.49 1059.07 C 662.79 1064.65 666.32 1070.33 671.69 1072.08 C 677.63 1073.91 684.77 1072.85 689.33 1068.40 C 692.43 1065.00 693.00 1059.75 691.59 1055.50 C 690.45 1052.05 687.34 1049.92 684.35 1048.19 C 689.27 1044.02 689.40 1034.97 683.45 1031.68 C 677.88 1028.13 670.31 1029.31 665.12 1033.03 M 569.77 1036.64 C 567.02 1040.59 566.95 1045.69 567.89 1050.25 C 569.89 1057.70 579.90 1061.79 586.10 1056.64 C 585.31 1060.47 584.46 1066.18 579.76 1066.80 C 576.26 1067.61 574.99 1063.73 573.25 1061.58 C 570.95 1061.59 568.65 1061.56 566.36 1061.56 C 566.10 1065.08 567.05 1068.83 569.92 1071.13 C 576.65 1076.36 587.58 1074.44 591.91 1067.01 C 595.53 1060.28 596.04 1052.39 595.84 1044.90 C 595.82 1038.59 591.29 1032.42 585.02 1031.13 C 579.50 1029.96 572.84 1031.55 569.77 1036.64 M 618.13 1036.24 C 615.00 1039.04 615.01 1043.71 615.64 1047.55 C 616.39 1049.86 618.56 1051.33 620.27 1052.95 C 614.09 1056.58 612.61 1065.47 616.85 1071.11 C 621.71 1077.23 631.46 1077.90 637.91 1074.02 C 645.22 1069.20 645.12 1056.85 637.22 1052.63 C 639.16 1050.09 641.74 1047.48 641.47 1044.02 C 642.09 1039.03 638.05 1034.51 633.33 1033.54 C 628.21 1032.42 622.31 1032.74 618.13 1036.24 Z" />
<path fill="#fefefe" opacity="1.00" d=" M 746.52 155.83 C 750.18 154.76 754.43 155.08 757.43 157.64 C 761.48 160.29 761.85 165.66 761.25 170.02 C 760.19 176.96 757.60 184.63 751.13 188.30 C 745.27 191.71 736.98 187.43 735.87 180.87 C 734.73 175.02 736.56 169.09 739.04 163.83 C 740.59 160.47 743.06 157.37 746.52 155.83 Z" />
<path fill="#fefefe" opacity="1.00" d=" M 398.31 184.17 C 402.54 182.74 407.23 184.68 410.03 187.98 C 414.44 192.98 417.56 199.36 418.12 206.05 C 418.44 212.72 411.81 218.78 405.16 216.92 C 398.05 215.06 394.08 207.85 391.47 201.52 C 388.64 195.11 390.94 186.13 398.31 184.17 Z" />
<path fill="#fefefe" opacity="1.00" d=" M 600.50 213.78 C 627.09 212.98 653.74 214.66 680.00 219.00 C 737.29 228.65 792.51 251.24 839.63 285.31 C 886.44 318.50 925.32 362.63 953.00 412.85 C 977.97 457.94 993.59 508.11 998.93 559.36 C 1003.93 609.42 999.70 660.47 985.98 708.90 C 964.54 785.94 918.17 855.87 855.16 905.17 C 787.49 958.66 701.14 987.40 615.00 986.67 C 518.29 987.38 421.01 952.05 349.49 886.51 C 343.45 880.54 336.81 875.18 331.28 868.70 C 275.30 811.15 239.63 734.67 229.94 655.08 C 219.45 573.20 234.73 487.97 274.40 415.44 C 292.98 380.93 317.16 349.55 345.04 322.06 C 358.20 309.78 371.80 297.92 386.46 287.44 C 446.58 243.48 519.77 217.82 594.13 214.28 C 596.25 214.17 598.37 213.92 600.50 213.78 M 601.41 229.45 C 579.78 229.94 558.24 232.92 537.04 237.15 C 457.19 253.56 383.28 297.47 330.87 359.91 C 275.81 424.41 244.54 508.35 242.51 593.00 C 241.62 617.56 243.43 642.18 247.18 666.44 C 254.34 710.48 269.57 753.19 292.11 791.71 C 308.13 818.80 327.55 843.93 350.08 865.93 C 388.85 903.86 436.26 932.74 487.52 950.37 C 543.56 969.53 603.98 975.45 662.74 968.44 C 705.05 963.27 746.53 950.98 784.60 931.77 C 818.85 914.43 850.57 891.90 877.60 864.60 C 884.34 857.64 891.28 850.84 897.30 843.22 C 955.40 775.92 986.27 686.65 985.26 598.01 C 985.56 567.05 981.14 536.18 973.63 506.19 C 959.39 450.98 932.20 399.18 894.77 356.16 C 849.50 303.71 788.99 264.46 722.53 244.76 C 683.40 232.84 642.25 228.01 601.41 229.45 Z" />
<path fill="#fefefe" opacity="1.00" d=" M 613.52 244.51 C 692.10 245.41 770.38 272.17 832.42 320.57 C 886.17 362.00 927.55 419.33 949.52 483.57 C 940.84 486.14 932.57 490.08 923.70 491.98 C 912.89 462.33 897.92 434.19 879.05 408.88 C 869.15 395.01 857.59 382.46 845.87 370.13 C 820.06 344.85 790.73 323.01 758.39 306.78 C 713.77 284.09 663.70 271.53 613.53 272.76 C 613.52 263.34 613.52 253.92 613.52 244.51 Z" />
<path fill="#fefefe" opacity="1.00" d=" M 906.45 270.84 C 911.73 267.11 917.32 263.84 923.02 260.81 C 920.52 266.97 917.82 273.09 914.21 278.69 C 911.66 276.04 909.06 273.43 906.45 270.84 Z" />
<path fill="#fefefe" opacity="1.00" d=" M 440.70 326.53 C 491.08 294.47 550.94 277.98 610.58 278.33 C 611.39 291.86 610.74 305.45 610.92 319.00 C 611.66 340.99 611.15 363.00 611.31 385.00 C 611.69 401.80 611.25 418.61 611.49 435.42 C 598.73 436.37 585.85 437.21 573.50 440.84 C 568.69 442.01 564.07 443.82 559.32 445.19 C 562.14 432.92 566.96 421.21 569.94 408.98 C 536.01 416.87 504.82 434.80 479.15 458.15 C 466.40 470.20 454.62 483.50 445.58 498.59 C 432.06 498.66 418.55 498.41 405.03 498.45 C 411.99 482.83 421.42 468.40 431.71 454.78 C 456.71 422.11 490.97 396.64 529.50 382.21 C 546.97 375.29 565.36 371.09 583.82 367.80 C 587.74 355.74 591.54 343.64 595.39 331.56 C 596.69 327.31 598.44 323.18 598.97 318.74 C 564.35 319.57 530.00 327.70 498.32 341.60 C 458.52 359.38 422.83 386.56 395.66 420.69 C 377.02 443.54 362.63 469.66 352.15 497.18 C 337.89 497.18 323.62 497.43 309.36 496.78 C 320.12 464.14 336.09 433.19 356.37 405.44 C 379.28 374.22 407.99 347.28 440.70 326.53 Z" />
<path fill="#fefefe" opacity="1.00" d=" M 630.11 321.15 C 635.42 321.04 640.66 322.08 645.89 322.84 C 705.13 331.15 762.43 356.66 806.23 397.72 C 813.13 403.52 818.77 410.58 824.95 417.10 C 837.06 430.99 847.55 446.26 856.58 462.32 C 863.22 474.23 868.24 486.92 873.52 499.46 C 886.10 499.85 898.72 499.04 911.29 499.88 C 909.81 500.71 908.33 501.51 906.76 502.13 C 861.11 517.03 815.42 531.84 769.76 546.69 C 765.15 534.88 760.41 523.03 753.56 512.31 C 747.53 502.94 741.15 493.66 733.08 485.91 C 723.85 476.34 713.60 467.65 702.03 461.01 C 693.04 455.02 683.13 450.60 673.07 446.73 C 670.52 445.92 670.06 443.04 669.26 440.86 C 666.32 431.61 662.78 422.54 660.18 413.19 C 668.66 414.74 676.74 417.84 684.70 421.06 C 704.82 429.19 723.41 440.93 739.85 455.06 C 754.15 467.65 767.22 481.94 776.70 498.56 C 795.17 499.05 813.64 499.42 832.11 499.33 C 829.68 492.32 825.52 486.11 822.19 479.54 C 803.44 447.37 777.39 419.46 746.51 398.65 C 715.56 378.02 679.84 364.17 642.72 360.43 C 638.77 347.25 634.16 334.29 630.11 321.15 Z" />
<path fill="#fefefe" opacity="1.00" d=" M 186.62 417.01 C 193.13 417.25 199.55 418.44 205.98 419.40 C 204.89 422.88 203.38 426.21 201.87 429.54 C 196.41 425.85 191.44 421.49 186.62 417.01 Z" />
<path fill="#fefefe" opacity="1.00" d=" M 1041.19 452.73 C 1044.59 451.66 1047.94 450.32 1051.53 450.01 C 1052.48 453.14 1054.02 456.27 1053.72 459.64 C 1052.62 463.63 1046.85 465.08 1043.97 462.08 C 1042.16 459.30 1041.36 456.00 1041.19 452.73 Z" />
<path fill="#fefefe" opacity="1.00" d=" M 602.40 452.48 C 615.72 451.85 629.15 452.19 642.25 454.89 C 656.89 458.18 671.25 463.11 684.38 470.45 C 721.29 490.75 748.45 527.69 756.86 568.96 C 764.25 604.70 758.37 643.18 739.91 674.74 C 730.60 690.82 717.97 704.89 703.47 716.46 C 677.71 736.04 645.42 747.13 613.01 746.65 C 573.86 747.28 534.71 731.64 506.94 704.01 C 482.28 679.54 467.22 645.77 465.28 611.09 C 462.86 577.75 472.02 543.53 491.04 516.00 C 498.12 505.34 507.10 496.15 516.50 487.53 C 540.40 467.06 570.98 454.49 602.40 452.48 M 570.18 541.46 C 560.66 542.96 551.63 546.74 543.26 551.40 C 542.19 552.18 540.54 552.67 540.22 554.10 C 535.37 575.48 530.89 596.94 526.21 618.36 C 524.96 623.65 523.60 628.93 523.10 634.36 C 580.91 634.32 638.72 634.37 696.53 634.35 C 696.27 627.46 695.30 620.62 694.39 613.79 C 691.78 592.65 689.29 571.49 686.67 550.35 C 674.93 544.81 662.01 541.59 649.00 541.55 C 635.46 541.36 621.89 546.27 611.88 555.45 C 607.47 552.47 603.22 549.22 598.47 546.79 C 589.92 542.18 579.85 539.61 570.18 541.46 M 512.27 587.17 C 507.01 607.75 502.33 628.48 497.17 649.09 C 496.62 651.18 496.36 653.32 496.11 655.47 C 572.53 655.58 648.94 655.52 725.36 655.51 C 724.53 648.79 722.92 642.20 721.51 635.59 C 718.75 619.44 715.32 603.42 712.28 587.33 C 708.82 587.68 705.46 588.65 702.14 589.63 C 703.31 600.88 706.19 611.86 708.06 623.00 C 709.24 630.25 711.15 637.38 711.90 644.70 C 651.60 644.94 591.30 644.74 531.00 644.80 C 523.69 644.61 516.38 645.78 509.11 644.63 C 513.45 626.29 518.32 608.09 522.66 589.75 C 519.20 588.86 515.78 587.83 512.27 587.17 Z" />
<path fill="#fefefe" opacity="1.00" d=" M 1019.36 460.07 C 1023.21 458.55 1027.15 457.23 1031.18 456.25 C 1032.15 459.88 1033.72 463.34 1034.45 467.03 C 1035.13 472.46 1026.76 475.48 1023.37 471.58 C 1021.12 468.13 1020.24 464.03 1019.36 460.07 Z" />
<path fill="#fefefe" opacity="1.00" d=" M 275.47 496.00 C 283.48 498.22 291.33 500.97 299.14 503.81 C 297.67 512.91 295.23 521.82 293.44 530.85 C 289.65 549.42 286.20 568.11 285.08 587.05 C 282.20 623.85 289.54 660.50 299.12 695.86 C 311.31 734.62 331.78 770.41 356.78 802.29 C 369.14 817.45 382.16 832.14 396.73 845.22 C 403.14 850.88 409.68 856.39 416.37 861.72 C 419.08 863.41 416.71 866.55 415.97 868.72 C 412.60 875.33 410.02 882.34 406.26 888.75 C 383.02 871.61 362.46 851.11 343.68 829.24 C 316.26 796.42 293.05 759.58 278.79 719.09 C 273.14 701.76 268.02 684.21 264.56 666.29 C 254.04 609.75 258.51 550.85 275.47 496.00 Z" />
<path fill="#fefefe" opacity="1.00" d=" M 311.74 503.99 C 359.81 519.00 407.62 534.87 455.68 549.93 C 455.22 555.15 453.25 560.10 452.61 565.30 C 447.79 592.70 446.73 621.67 456.06 648.27 C 459.43 659.31 464.44 669.77 469.94 679.89 C 471.71 683.31 474.15 686.39 475.54 690.00 C 472.92 700.80 469.12 711.32 465.84 721.95 C 442.89 693.52 428.22 658.51 423.84 622.26 C 421.99 609.58 422.25 596.76 422.34 583.99 C 407.75 573.41 393.03 562.95 378.06 552.91 C 375.72 560.45 375.13 568.35 373.93 576.12 C 371.81 601.44 372.93 627.13 378.33 652.00 C 382.57 673.24 391.03 693.46 401.65 712.28 C 414.22 734.53 429.49 755.38 447.58 773.47 C 448.84 774.37 448.58 775.91 448.08 777.16 C 443.73 789.68 439.42 802.20 435.00 814.70 C 411.53 795.50 391.79 771.92 375.87 746.16 C 364.88 728.50 356.03 709.55 349.13 689.94 C 341.77 667.93 336.00 645.24 334.16 622.05 C 331.40 590.24 334.64 557.93 343.69 527.30 C 333.23 519.28 322.18 512.04 311.74 503.99 Z" />
<path fill="#fefefe" opacity="1.00" d=" M 889.92 524.89 C 899.86 518.07 909.28 510.49 919.41 503.96 C 927.68 531.89 933.66 560.73 933.73 589.96 C 934.46 620.18 929.72 650.26 922.33 679.49 C 912.99 718.31 893.79 754.13 870.00 785.97 C 850.34 812.21 827.68 836.30 801.93 856.65 C 776.85 822.82 752.42 788.49 727.52 754.52 C 722.48 747.22 717.02 740.22 711.99 732.91 C 725.92 722.76 736.98 709.41 747.66 696.04 C 748.67 698.11 749.59 700.24 750.34 702.43 C 752.92 711.31 756.42 719.88 759.15 728.71 C 779.16 707.68 793.27 681.36 801.29 653.56 C 807.93 631.08 809.70 607.34 807.47 584.05 C 819.32 576.05 830.74 567.42 842.76 559.70 C 849.48 603.22 845.24 648.68 828.90 689.70 C 816.61 719.61 797.58 746.89 773.17 768.16 C 771.18 769.66 772.44 772.40 773.02 774.33 C 778.54 789.27 782.81 804.65 788.62 819.48 C 795.55 813.83 801.72 807.33 808.09 801.08 C 840.97 768.26 867.65 728.54 881.88 684.09 C 895.91 640.61 898.77 593.59 890.10 548.74 C 889.10 542.44 887.35 536.29 886.27 530.02 C 885.45 527.37 888.21 526.18 889.92 524.89 Z" />
<path fill="#fefefe" opacity="1.00" d=" M 557.46 561.34 C 563.43 558.15 570.22 556.16 577.04 556.53 C 587.17 557.42 596.98 562.50 603.23 570.56 C 603.77 574.01 603.68 577.52 603.72 581.00 C 603.60 591.67 604.14 602.34 603.76 613.00 C 585.98 603.36 563.88 601.40 545.18 609.58 C 545.22 607.45 545.29 605.31 545.75 603.23 C 548.57 590.55 550.88 577.75 553.71 565.07 C 554.03 563.14 556.01 562.31 557.46 561.34 Z" />
<path fill="#fefefe" opacity="1.00" d=" M 619.60 569.58 C 626.23 562.51 635.16 557.25 644.97 556.50 C 654.12 555.90 663.56 558.02 671.48 562.69 C 673.54 578.24 675.90 593.78 677.54 609.38 C 669.86 607.11 662.14 604.35 654.02 604.51 C 641.61 604.06 628.99 607.01 618.31 613.41 C 617.99 601.94 618.70 590.48 618.51 579.01 C 618.64 575.86 618.33 572.54 619.60 569.58 Z" />
<path fill="#fefefe" opacity="1.00" d=" M 148.86 562.71 C 155.47 561.21 162.13 559.95 168.76 558.54 C 168.68 562.32 168.53 566.11 168.19 569.89 C 161.62 567.86 155.35 564.98 148.86 562.71 Z" />
<path fill="#fefefe" opacity="1.00" d=" M 1030.55 715.53 C 1029.72 711.24 1030.15 706.72 1031.74 702.66 C 1042.25 705.32 1052.75 708.06 1063.17 711.04 C 1065.37 711.52 1063.74 714.01 1063.52 715.38 C 1061.82 722.06 1055.78 727.44 1048.84 727.88 C 1040.93 728.47 1032.67 723.34 1030.55 715.53 Z" />
<path fill="#fefefe" opacity="1.00" d=" M 494.36 764.52 C 501.91 754.31 508.74 743.54 516.86 733.78 C 522.33 736.61 527.19 740.45 532.57 743.43 C 540.17 747.51 547.99 751.22 556.22 753.85 C 530.05 774.21 503.53 794.14 477.20 814.29 C 463.69 824.40 450.51 834.95 436.89 844.90 C 445.89 831.39 455.81 818.52 465.09 805.20 C 474.94 791.71 484.37 777.91 494.36 764.52 Z" />
<path fill="#fefefe" opacity="1.00" d=" M 172.30 747.14 C 177.57 738.08 191.88 736.28 199.13 743.87 C 201.91 746.66 203.59 750.46 203.99 754.36 C 193.38 757.98 182.79 761.65 172.22 765.38 C 169.64 759.69 168.56 752.59 172.30 747.14 Z" />
<path fill="#fefefe" opacity="1.00" d=" M 566.17 760.24 C 568.91 757.99 572.52 760.08 575.59 760.41 C 601.56 766.29 628.86 765.84 654.75 759.77 C 657.03 759.32 659.72 758.57 661.64 760.38 C 707.63 794.01 753.57 827.71 799.55 861.36 C 801.32 862.67 802.77 864.40 803.38 866.57 C 806.18 874.91 809.37 883.12 812.23 891.45 C 812.59 892.75 813.32 894.78 811.74 895.61 C 776.53 918.47 737.19 934.79 696.42 944.64 C 645.13 957.04 590.97 958.37 539.39 946.83 C 494.97 937.03 452.53 918.70 414.43 893.95 C 418.01 885.00 422.40 876.39 426.53 867.68 C 428.82 862.18 434.48 859.43 438.92 855.92 C 481.31 824.00 523.80 792.19 566.17 760.24 M 483.54 852.93 C 483.27 859.39 484.75 865.70 485.44 872.09 C 482.85 870.86 480.20 869.67 477.88 867.97 C 476.26 864.73 475.63 860.77 472.51 858.51 C 466.44 853.49 458.14 854.52 450.83 854.60 C 453.28 862.98 460.81 871.01 470.03 871.08 C 473.76 870.95 476.93 873.13 479.75 875.32 C 479.72 875.63 479.65 876.26 479.62 876.57 C 476.90 878.10 473.95 879.24 470.96 880.12 C 467.94 881.04 464.54 880.89 461.96 882.93 C 464.29 885.53 467.52 886.99 470.66 888.36 C 479.31 892.10 489.20 894.60 498.49 891.81 C 502.57 890.87 506.23 888.73 510.18 887.44 C 512.91 887.51 515.33 889.13 517.85 890.07 C 512.22 896.21 503.34 897.27 495.82 899.87 C 498.49 903.12 502.85 903.72 506.54 905.25 C 515.61 908.57 525.50 909.86 535.05 908.10 C 541.21 906.74 546.43 903.08 551.41 899.40 C 553.97 899.07 556.52 899.76 559.02 900.26 C 555.44 908.26 546.68 911.98 538.86 914.59 C 540.26 916.63 542.75 917.24 544.93 918.11 C 554.51 921.49 565.18 923.22 575.09 920.19 C 583.33 917.24 591.08 912.38 596.84 905.72 C 595.95 900.24 593.20 895.34 590.77 890.44 C 588.19 885.81 585.31 881.23 581.41 877.60 C 573.60 869.92 562.14 867.27 551.50 867.28 C 553.97 872.11 557.57 876.27 559.81 881.23 C 562.02 885.67 562.67 890.66 562.93 895.56 C 560.86 895.22 558.76 894.96 556.75 894.37 C 555.61 893.06 555.19 891.30 554.49 889.75 C 551.86 882.90 547.97 876.43 542.49 871.48 C 534.82 863.64 524.20 857.69 512.97 858.24 C 517.61 866.47 521.26 875.58 521.65 885.12 C 519.06 884.41 515.88 884.35 514.05 882.11 C 512.60 878.83 511.96 875.18 509.92 872.17 C 505.04 864.70 498.24 858.43 490.23 854.46 C 488.16 853.38 485.80 853.23 483.54 852.93 M 709.69 882.79 C 708.52 885.96 704.63 886.44 701.74 886.84 C 701.37 881.10 703.82 875.81 705.30 870.40 C 706.36 866.53 709.41 863.49 710.00 859.48 C 704.28 859.64 698.77 861.48 693.59 863.77 C 687.31 866.70 682.25 871.61 677.61 876.64 C 672.72 881.97 669.94 888.77 667.23 895.37 C 666.01 897.88 662.49 896.65 660.32 896.45 C 660.20 886.12 666.52 877.52 671.97 869.32 C 663.61 868.84 655.04 870.80 647.72 874.86 C 636.72 882.35 630.08 894.66 626.29 907.15 C 633.68 915.55 643.76 921.98 654.99 923.43 C 665.44 924.42 675.83 921.47 685.14 916.89 C 680.58 914.75 675.62 913.38 671.55 910.33 C 668.67 908.12 665.06 905.88 664.94 901.82 C 667.79 901.65 671.19 900.16 673.61 902.37 C 679.47 906.82 686.43 910.41 693.92 910.64 C 704.84 911.30 715.65 908.08 725.47 903.53 C 726.63 903.39 727.44 901.08 725.91 901.00 C 718.63 899.18 710.99 897.28 705.29 892.07 C 707.73 890.96 710.14 889.46 712.89 889.28 C 717.21 890.41 721.14 892.72 725.50 893.80 C 735.32 896.39 745.56 893.55 754.49 889.34 C 756.95 888.06 760.55 887.15 760.68 883.80 C 754.70 882.68 748.81 881.01 743.35 878.29 C 743.42 877.90 743.56 877.13 743.63 876.74 C 745.62 875.68 747.55 874.48 749.61 873.55 C 753.36 872.57 757.51 872.97 760.99 870.99 C 766.53 867.83 770.66 862.51 772.93 856.60 C 767.41 856.21 761.75 855.92 756.33 857.27 C 751.62 858.27 747.92 862.29 746.77 866.89 C 746.06 871.07 741.30 871.89 738.14 873.58 C 738.98 866.96 739.98 860.35 739.67 853.64 C 726.10 858.24 713.73 868.68 709.69 882.79 M 610.20 868.86 C 606.03 870.73 604.76 876.75 607.85 880.07 C 611.42 884.02 619.59 881.59 619.44 875.95 C 620.19 870.95 614.72 867.31 610.20 868.86 Z" />
<path fill="#fefefe" opacity="1.00" d=" M 672.43 1037.23 C 674.18 1036.23 676.75 1036.22 678.31 1037.63 C 680.35 1039.14 679.81 1042.15 679.24 1044.28 C 677.64 1046.29 674.72 1045.76 672.48 1045.56 C 669.48 1044.09 669.31 1038.61 672.43 1037.23 Z" />
<path fill="#fefefe" opacity="1.00" d=" M 579.46 1038.38 C 580.77 1038.08 582.16 1038.08 583.48 1038.39 C 587.86 1040.78 587.86 1047.37 585.04 1050.94 C 583.70 1053.15 580.81 1052.91 578.64 1052.33 C 575.41 1050.49 575.51 1046.24 576.13 1043.06 C 576.37 1041.14 577.53 1038.94 579.46 1038.38 Z" />
<path fill="#fefefe" opacity="1.00" d=" M 625.50 1048.66 C 622.49 1046.72 622.75 1041.28 626.26 1040.06 C 628.25 1039.12 630.35 1040.31 632.30 1040.80 C 633.40 1043.25 633.38 1045.86 632.32 1048.33 C 630.16 1048.89 627.51 1050.21 625.50 1048.66 Z" />
<path fill="#fefefe" opacity="1.00" d=" M 674.55 1053.55 C 677.03 1053.17 680.38 1052.56 682.02 1055.01 C 683.66 1056.80 683.63 1059.39 683.44 1061.68 C 683.17 1064.83 679.14 1066.91 676.34 1065.79 C 671.32 1064.33 670.41 1056.39 674.55 1053.55 Z" />
<path fill="#fefefe" opacity="1.00" d=" M 626.57 1056.61 C 629.64 1055.48 633.56 1057.24 634.28 1060.55 C 634.86 1063.17 635.02 1066.80 632.36 1068.38 C 629.01 1071.22 622.99 1068.23 623.13 1063.87 C 622.89 1061.08 623.60 1057.64 626.57 1056.61 Z" />
<path fill="#296334" opacity="1.00" d=" M 597.67 5.14 C 615.80 3.05 634.42 7.09 650.47 15.67 C 665.14 22.92 675.33 36.12 688.03 46.03 C 706.63 60.56 727.26 72.79 749.65 80.45 C 760.56 83.08 771.87 83.36 783.05 83.46 C 801.39 82.94 819.70 80.65 837.51 76.18 C 871.65 66.14 911.12 76.41 935.53 102.47 C 948.41 115.50 956.66 132.25 962.45 149.45 C 968.12 164.10 974.12 178.66 981.28 192.65 C 984.73 199.32 989.26 205.35 993.25 211.70 C 999.64 220.03 1008.08 226.56 1016.85 232.20 C 1030.56 240.79 1045.68 246.82 1060.99 251.88 C 1072.37 255.63 1084.28 257.87 1095.11 263.15 C 1104.96 267.60 1114.03 273.69 1121.92 281.09 C 1139.26 298.12 1149.60 321.86 1150.69 346.11 C 1150.66 353.86 1151.08 361.77 1149.05 369.33 C 1141.18 398.30 1137.74 428.94 1142.48 458.74 C 1145.04 468.99 1149.07 478.89 1154.01 488.23 C 1162.79 503.19 1173.61 516.90 1185.46 529.54 C 1202.32 545.32 1212.40 567.31 1216.23 589.87 C 1218.99 608.61 1217.54 628.41 1209.56 645.78 C 1204.76 657.07 1197.36 667.07 1188.92 675.91 C 1176.02 688.87 1164.09 702.89 1154.19 718.30 C 1146.51 730.18 1139.57 743.45 1139.35 757.92 C 1137.48 780.38 1140.83 802.95 1146.40 824.69 C 1152.44 848.05 1149.55 873.63 1137.87 894.82 C 1125.19 917.12 1103.89 935.11 1078.73 941.32 C 1060.41 946.45 1042.80 953.93 1026.11 963.03 C 1016.59 969.02 1006.51 974.57 998.60 982.68 C 979.20 1005.38 966.16 1033.02 958.35 1061.70 C 953.50 1079.05 942.59 1094.37 928.68 1105.67 C 912.83 1118.94 892.66 1126.61 872.10 1128.10 C 859.62 1129.33 847.09 1127.71 834.82 1125.49 C 811.53 1121.93 787.89 1118.50 764.29 1120.72 C 755.05 1121.35 746.49 1125.10 737.82 1128.00 C 728.37 1132.24 718.83 1136.49 710.26 1142.38 C 701.66 1147.86 693.66 1154.24 686.05 1161.01 C 680.15 1166.75 674.29 1172.56 667.65 1177.46 C 651.43 1189.71 631.41 1197.28 610.99 1197.52 C 590.58 1198.27 569.77 1192.65 552.95 1180.94 C 544.37 1174.67 537.40 1166.52 529.24 1159.74 C 512.71 1145.95 494.50 1133.97 474.59 1125.64 C 466.20 1121.97 457.02 1120.89 447.99 1119.98 C 430.73 1118.61 413.32 1119.51 396.29 1122.62 C 385.14 1124.36 374.43 1128.52 363.07 1128.93 C 334.81 1130.36 305.83 1121.12 284.37 1102.51 C 271.64 1091.72 261.93 1077.61 255.58 1062.23 C 249.55 1046.03 242.30 1030.28 233.75 1015.26 C 226.89 1003.48 219.76 991.62 209.97 982.01 C 205.44 977.36 199.69 974.21 194.36 970.61 C 176.58 959.64 157.59 950.83 138.44 942.58 C 126.86 938.19 115.41 933.06 105.34 925.76 C 93.42 917.27 83.49 905.90 77.12 892.68 C 67.68 872.59 66.65 849.45 70.80 827.90 C 77.70 798.78 80.83 767.73 72.79 738.50 C 67.97 724.48 59.13 712.35 50.13 700.75 C 42.95 692.00 35.74 683.27 27.52 675.47 C 6.22 654.61 -1.02 622.44 4.32 593.68 C 6.47 582.63 10.82 572.10 16.35 562.33 C 21.81 553.40 28.64 545.39 35.92 537.91 C 46.73 525.62 57.49 513.23 66.86 499.78 C 71.58 492.92 76.60 485.89 78.44 477.62 C 80.07 471.07 82.54 464.70 83.40 458.00 C 84.09 439.18 81.16 420.43 77.37 402.05 C 75.08 390.27 71.14 378.80 69.99 366.81 C 68.51 350.04 70.87 332.71 78.26 317.49 C 81.39 310.83 85.31 304.56 89.66 298.63 C 97.65 289.55 106.32 280.79 116.90 274.72 C 123.24 271.17 129.78 267.81 136.86 266.00 C 162.47 259.01 187.28 248.38 209.02 233.02 C 213.25 230.01 217.65 227.07 220.93 222.98 C 232.81 208.31 241.53 191.39 249.11 174.19 C 251.76 167.32 254.41 160.43 256.50 153.36 C 259.10 145.24 260.84 136.76 264.95 129.21 C 278.38 103.44 303.32 83.25 332.16 77.93 C 341.29 75.82 350.71 76.24 360.00 76.55 C 366.19 77.15 372.31 78.44 378.35 79.89 C 400.99 86.05 424.70 87.77 448.05 86.06 C 452.98 85.68 457.62 83.86 462.33 82.47 C 467.34 80.77 472.55 79.67 477.50 77.76 C 498.22 68.80 516.98 55.74 533.62 40.57 C 541.63 32.58 550.00 24.83 559.54 18.69 C 571.12 11.65 584.11 6.49 597.67 5.14 M 577.68 101.22 C 514.59 105.90 452.45 122.86 395.64 150.66 C 340.11 177.82 289.66 215.35 247.72 260.77 C 189.78 323.04 148.19 400.33 128.16 482.99 C 108.31 564.78 109.37 651.55 131.35 732.80 C 151.38 807.08 188.98 876.47 239.97 934.05 C 250.27 946.05 261.79 956.92 273.02 968.03 C 316.91 1009.11 368.13 1042.41 423.73 1065.32 C 511.94 1102.26 610.84 1112.54 704.90 1095.72 C 766.66 1084.60 826.37 1061.92 879.70 1028.79 C 911.96 1008.97 941.72 985.20 968.85 958.82 C 974.95 952.88 980.53 946.45 986.42 940.30 C 1005.64 919.59 1022.77 896.99 1038.15 873.30 C 1085.87 799.81 1113.39 713.47 1117.53 625.98 C 1117.97 612.66 1117.82 599.34 1117.74 586.02 C 1116.49 537.79 1107.89 489.77 1092.74 443.97 C 1064.20 357.15 1011.03 278.73 941.44 219.58 C 880.48 167.36 806.68 130.35 728.47 112.35 C 679.13 101.20 628.12 97.21 577.68 101.22 Z" />
<path fill="#296334" opacity="1.00" d=" M 600.21 124.01 C 606.03 121.88 612.63 122.26 618.38 124.45 C 622.33 126.07 625.04 129.56 627.18 133.12 C 624.58 135.56 621.60 137.51 618.71 139.57 C 615.39 136.76 612.07 132.45 607.15 133.43 C 601.38 133.51 598.12 139.24 597.42 144.33 C 596.82 150.27 596.88 156.66 599.85 162.03 C 601.73 165.68 605.87 168.33 610.06 167.68 C 614.41 167.54 617.56 163.37 618.23 159.34 C 614.97 158.99 611.69 158.78 608.41 158.74 C 608.50 155.60 608.48 152.46 608.38 149.33 C 615.46 148.96 622.54 148.57 629.63 148.87 C 630.03 155.36 629.70 162.23 625.94 167.80 C 622.25 174.45 614.65 178.82 606.98 177.87 C 600.55 177.77 594.96 173.59 591.63 168.33 C 586.98 160.68 585.85 151.24 587.38 142.51 C 588.31 134.82 592.74 126.96 600.21 124.01 Z" />
<path fill="#296334" opacity="1.00" d=" M 534.04 129.38 C 543.81 128.18 553.51 126.14 563.34 125.47 C 563.61 128.73 563.83 131.99 563.86 135.25 C 557.63 136.02 551.42 136.91 545.21 137.74 C 545.19 141.52 545.70 145.28 546.54 148.96 C 550.75 148.49 554.99 148.13 559.23 148.29 C 559.34 151.38 559.57 154.46 559.77 157.54 C 555.97 158.17 552.16 158.64 548.33 158.89 C 548.28 163.19 548.62 167.49 549.56 171.70 C 556.16 171.25 562.62 169.53 569.25 169.30 C 569.68 172.38 570.12 175.45 570.61 178.52 C 565.77 179.97 560.70 180.22 555.75 181.05 C 550.77 181.67 545.83 182.64 540.81 182.76 C 539.28 164.89 535.35 147.27 534.04 129.38 Z" />
<path fill="#296334" opacity="1.00" d=" M 648.37 179.23 C 650.59 161.31 652.65 143.37 654.82 125.45 C 664.67 126.40 674.46 127.94 684.31 128.89 C 684.11 132.17 683.65 135.43 683.18 138.68 C 676.60 138.52 670.16 137.02 663.62 136.45 C 662.95 140.34 662.27 144.27 662.49 148.23 C 666.35 148.35 670.20 148.69 674.01 149.39 C 674.01 152.57 673.75 155.74 673.29 158.89 C 669.06 158.75 664.84 158.36 660.62 158.22 C 660.34 162.32 659.81 166.39 659.40 170.48 C 665.71 171.44 672.07 172.18 678.45 172.66 C 678.68 175.96 678.36 179.26 678.12 182.55 C 668.16 182.00 658.29 180.28 648.37 179.23 Z" />
<path fill="#296334" opacity="1.00" d=" M 483.23 140.36 C 486.19 139.60 489.17 138.84 492.19 138.28 C 495.89 152.39 499.44 166.55 502.71 180.77 C 509.96 180.16 516.69 177.05 523.86 176.03 C 524.74 179.17 525.64 182.33 525.88 185.61 C 515.79 187.99 505.80 190.84 495.64 192.91 C 492.16 179.30 488.95 165.62 485.48 152.01 C 484.54 148.17 483.27 144.36 483.23 140.36 Z" />
<path fill="#296334" opacity="1.00" d=" M 746.48 145.62 C 752.79 144.25 759.64 146.30 764.49 150.47 C 770.06 155.20 771.65 163.07 771.09 170.05 C 770.30 177.59 767.83 185.15 763.13 191.18 C 759.49 195.83 754.08 199.51 748.01 199.55 C 740.57 199.96 732.76 196.50 729.00 189.89 C 723.66 180.97 725.19 169.60 729.57 160.62 C 732.55 153.42 738.43 146.82 746.48 145.62 M 746.52 155.83 C 743.06 157.37 740.59 160.47 739.04 163.83 C 736.56 169.09 734.73 175.02 735.87 180.87 C 736.98 187.43 745.27 191.71 751.13 188.30 C 757.60 184.63 760.19 176.96 761.25 170.02 C 761.85 165.66 761.48 160.29 757.43 157.64 C 754.43 155.08 750.18 154.76 746.52 155.83 Z" />
<path fill="#296334" opacity="1.00" d=" M 434.77 156.69 C 437.64 155.25 440.72 154.24 443.96 154.09 C 448.54 167.67 453.40 181.16 457.79 194.80 C 464.91 193.75 471.33 190.14 478.27 188.34 C 479.71 191.19 480.64 194.24 481.56 197.29 C 478.74 198.75 475.78 199.90 472.75 200.84 C 465.72 203.09 458.87 205.85 451.76 207.83 C 448.37 197.07 444.40 186.49 440.93 175.76 C 438.92 169.38 436.01 163.29 434.77 156.69 Z" />
<path fill="#296334" opacity="1.00" d=" M 800.07 163.27 C 804.48 164.20 808.25 166.81 812.36 168.56 C 817.15 170.67 821.81 173.10 826.72 174.93 C 826.64 178.23 824.80 181.07 823.57 184.03 C 816.98 182.71 811.35 178.67 805.13 176.29 C 803.58 179.61 802.02 182.92 800.50 186.25 C 804.19 188.30 808.02 190.08 811.74 192.10 C 810.56 195.07 809.27 197.99 807.87 200.86 C 803.71 199.65 800.11 196.98 795.84 196.16 C 792.66 202.77 790.07 209.68 786.40 216.04 C 783.58 214.97 780.82 213.78 778.09 212.53 C 778.32 211.34 778.47 210.13 778.97 209.02 C 785.91 193.73 793.19 178.59 800.07 163.27 Z" />
<path fill="#296334" opacity="1.00" d=" M 394.61 174.92 C 400.10 172.88 406.44 173.48 411.42 176.58 C 419.78 181.83 425.26 190.93 427.31 200.46 C 428.77 207.37 427.78 215.39 422.61 220.60 C 417.88 225.95 410.12 228.39 403.18 226.77 C 397.05 225.22 391.51 221.39 388.07 216.06 C 383.94 209.81 380.17 202.70 380.48 194.99 C 379.91 186.10 386.07 177.44 394.61 174.92 M 398.31 184.17 C 390.94 186.13 388.64 195.11 391.47 201.52 C 394.08 207.85 398.05 215.06 405.16 216.92 C 411.81 218.78 418.44 212.72 418.12 206.05 C 417.56 199.36 414.44 192.98 410.03 187.98 C 407.23 184.68 402.54 182.74 398.31 184.17 Z" />
<path fill="#296334" opacity="1.00" d=" M 596.32 198.02 C 662.82 194.54 730.25 207.63 790.30 236.54 C 846.03 263.21 895.27 303.19 932.96 352.13 C 964.80 393.29 988.44 440.75 1002.08 490.97 C 1008.60 515.53 1013.17 540.64 1015.01 565.99 C 1018.24 611.86 1014.32 658.28 1002.62 702.78 C 982.12 782.22 936.79 855.11 874.22 908.23 C 860.46 920.03 845.77 930.72 830.58 940.61 C 813.86 950.98 796.72 960.83 778.60 968.58 C 687.15 1009.53 580.44 1013.66 485.48 982.30 C 431.27 964.41 381.06 934.64 339.24 895.79 C 285.78 846.07 246.12 781.48 226.74 711.03 C 218.12 680.77 213.33 649.44 211.95 618.03 C 210.98 588.65 212.22 559.11 217.53 530.15 C 229.30 460.15 260.40 393.51 306.49 339.52 C 360.90 275.18 436.24 228.97 518.14 209.29 C 543.73 202.87 569.99 199.35 596.32 198.02 M 600.50 213.78 C 598.37 213.92 596.25 214.17 594.13 214.28 C 519.77 217.82 446.58 243.48 386.46 287.44 C 371.80 297.92 358.20 309.78 345.04 322.06 C 317.16 349.55 292.98 380.93 274.40 415.44 C 234.73 487.97 219.45 573.20 229.94 655.08 C 239.63 734.67 275.30 811.15 331.28 868.70 C 336.81 875.18 343.45 880.54 349.49 886.51 C 421.01 952.05 518.29 987.38 615.00 986.67 C 701.14 987.40 787.49 958.66 855.16 905.17 C 918.17 855.87 964.54 785.94 985.98 708.90 C 999.70 660.47 1003.93 609.42 998.93 559.36 C 993.59 508.11 977.97 457.94 953.00 412.85 C 925.32 362.63 886.44 318.50 839.63 285.31 C 792.51 251.24 737.29 228.65 680.00 219.00 C 653.74 214.66 627.09 212.98 600.50 213.78 Z" />
<path fill="#296334" opacity="1.00" d=" M 333.48 213.49 C 338.74 204.70 350.60 201.26 359.94 205.32 C 359.77 209.02 357.95 212.28 356.25 215.48 C 353.31 215.12 350.18 214.15 347.37 215.61 C 342.73 217.49 339.57 222.84 340.87 227.82 C 342.63 235.43 347.89 242.67 355.52 245.18 C 358.38 245.86 361.82 246.12 364.22 244.08 C 367.60 242.03 368.64 238.02 369.75 234.50 C 373.02 234.33 376.30 234.26 379.58 234.39 C 379.51 239.98 378.40 246.12 374.15 250.12 C 369.94 254.55 363.83 257.35 357.66 256.68 C 346.99 255.84 338.28 247.71 333.70 238.47 C 329.72 230.88 328.40 220.91 333.48 213.49 Z" />
<path fill="#296334" opacity="1.00" d=" M 871.70 208.75 C 876.19 207.55 881.25 208.17 885.17 210.75 C 890.36 213.87 895.37 218.35 896.76 224.50 C 894.26 226.79 891.66 228.97 888.84 230.84 C 886.39 224.66 881.00 217.24 873.49 218.52 C 873.10 221.20 872.98 224.03 874.35 226.49 C 877.77 233.98 882.33 241.96 880.18 250.51 C 878.28 254.77 874.77 258.52 870.39 260.25 C 865.11 261.72 859.50 259.99 855.22 256.79 C 850.77 253.37 846.56 249.24 844.49 243.93 C 844.51 243.60 844.55 242.94 844.57 242.62 C 847.11 240.49 849.73 238.20 852.98 237.23 C 854.93 242.39 857.94 247.86 863.49 249.76 C 866.94 251.77 870.88 248.50 871.44 245.00 C 869.84 236.50 862.53 229.92 862.75 220.99 C 862.57 215.46 866.85 210.77 871.70 208.75 Z" />
<path fill="#296334" opacity="1.00" d=" M 601.41 229.45 C 642.25 228.01 683.40 232.84 722.53 244.76 C 788.99 264.46 849.50 303.71 894.77 356.16 C 932.20 399.18 959.39 450.98 973.63 506.19 C 981.14 536.18 985.56 567.05 985.26 598.01 C 986.27 686.65 955.40 775.92 897.30 843.22 C 891.28 850.84 884.34 857.64 877.60 864.60 C 850.57 891.90 818.85 914.43 784.60 931.77 C 746.53 950.98 705.05 963.27 662.74 968.44 C 603.98 975.45 543.56 969.53 487.52 950.37 C 436.26 932.74 388.85 903.86 350.08 865.93 C 327.55 843.93 308.13 818.80 292.11 791.71 C 269.57 753.19 254.34 710.48 247.18 666.44 C 243.43 642.18 241.62 617.56 242.51 593.00 C 244.54 508.35 275.81 424.41 330.87 359.91 C 383.28 297.47 457.19 253.56 537.04 237.15 C 558.24 232.92 579.78 229.94 601.41 229.45 M 613.52 244.51 C 613.52 253.92 613.52 263.34 613.53 272.76 C 663.70 271.53 713.77 284.09 758.39 306.78 C 790.73 323.01 820.06 344.85 845.87 370.13 C 857.59 382.46 869.15 395.01 879.05 408.88 C 897.92 434.19 912.89 462.33 923.70 491.98 C 932.57 490.08 940.84 486.14 949.52 483.57 C 927.55 419.33 886.17 362.00 832.42 320.57 C 770.38 272.17 692.10 245.41 613.52 244.51 M 440.70 326.53 C 407.99 347.28 379.28 374.22 356.37 405.44 C 336.09 433.19 320.12 464.14 309.36 496.78 C 323.62 497.43 337.89 497.18 352.15 497.18 C 362.63 469.66 377.02 443.54 395.66 420.69 C 422.83 386.56 458.52 359.38 498.32 341.60 C 530.00 327.70 564.35 319.57 598.97 318.74 C 598.44 323.18 596.69 327.31 595.39 331.56 C 591.54 343.64 587.74 355.74 583.82 367.80 C 565.36 371.09 546.97 375.29 529.50 382.21 C 490.97 396.64 456.71 422.11 431.71 454.78 C 421.42 468.40 411.99 482.83 405.03 498.45 C 418.55 498.41 432.06 498.66 445.58 498.59 C 454.62 483.50 466.40 470.20 479.15 458.15 C 504.82 434.80 536.01 416.87 569.94 408.98 C 566.96 421.21 562.14 432.92 559.32 445.19 C 564.07 443.82 568.69 442.01 573.50 440.84 C 585.85 437.21 598.73 436.37 611.49 435.42 C 611.25 418.61 611.69 401.80 611.31 385.00 C 611.15 363.00 611.66 340.99 610.92 319.00 C 610.74 305.45 611.39 291.86 610.58 278.33 C 550.94 277.98 491.08 294.47 440.70 326.53 M 630.11 321.15 C 634.16 334.29 638.77 347.25 642.72 360.43 C 679.84 364.17 715.56 378.02 746.51 398.65 C 777.39 419.46 803.44 447.37 822.19 479.54 C 825.52 486.11 829.68 492.32 832.11 499.33 C 813.64 499.42 795.17 499.05 776.70 498.56 C 767.22 481.94 754.15 467.65 739.85 455.06 C 723.41 440.93 704.82 429.19 684.70 421.06 C 676.74 417.84 668.66 414.74 660.18 413.19 C 662.78 422.54 666.32 431.61 669.26 440.86 C 670.06 443.04 670.52 445.92 673.07 446.73 C 683.13 450.60 693.04 455.02 702.03 461.01 C 713.60 467.65 723.85 476.34 733.08 485.91 C 741.15 493.66 747.53 502.94 753.56 512.31 C 760.41 523.03 765.15 534.88 769.76 546.69 C 815.42 531.84 861.11 517.03 906.76 502.13 C 908.33 501.51 909.81 500.71 911.29 499.88 C 898.72 499.04 886.10 499.85 873.52 499.46 C 868.24 486.92 863.22 474.23 856.58 462.32 C 847.55 446.26 837.06 430.99 824.95 417.10 C 818.77 410.58 813.13 403.52 806.23 397.72 C 762.43 356.66 705.13 331.15 645.89 322.84 C 640.66 322.08 635.42 321.04 630.11 321.15 M 602.40 452.48 C 570.98 454.49 540.40 467.06 516.50 487.53 C 507.10 496.15 498.12 505.34 491.04 516.00 C 472.02 543.53 462.86 577.75 465.28 611.09 C 467.22 645.77 482.28 679.54 506.94 704.01 C 534.71 731.64 573.86 747.28 613.01 746.65 C 645.42 747.13 677.71 736.04 703.47 716.46 C 717.97 704.89 730.60 690.82 739.91 674.74 C 758.37 643.18 764.25 604.70 756.86 568.96 C 748.45 527.69 721.29 490.75 684.38 470.45 C 671.25 463.11 656.89 458.18 642.25 454.89 C 629.15 452.19 615.72 451.85 602.40 452.48 M 275.47 496.00 C 258.51 550.85 254.04 609.75 264.56 666.29 C 268.02 684.21 273.14 701.76 278.79 719.09 C 293.05 759.58 316.26 796.42 343.68 829.24 C 362.46 851.11 383.02 871.61 406.26 888.75 C 410.02 882.34 412.60 875.33 415.97 868.72 C 416.71 866.55 419.08 863.41 416.37 861.72 C 409.68 856.39 403.14 850.88 396.73 845.22 C 382.16 832.14 369.14 817.45 356.78 802.29 C 331.78 770.41 311.31 734.62 299.12 695.86 C 289.54 660.50 282.20 623.85 285.08 587.05 C 286.20 568.11 289.65 549.42 293.44 530.85 C 295.23 521.82 297.67 512.91 299.14 503.81 C 291.33 500.97 283.48 498.22 275.47 496.00 M 311.74 503.99 C 322.18 512.04 333.23 519.28 343.69 527.30 C 334.64 557.93 331.40 590.24 334.16 622.05 C 336.00 645.24 341.77 667.93 349.13 689.94 C 356.03 709.55 364.88 728.50 375.87 746.16 C 391.79 771.92 411.53 795.50 435.00 814.70 C 439.42 802.20 443.73 789.68 448.08 777.16 C 448.58 775.91 448.84 774.37 447.58 773.47 C 429.49 755.38 414.22 734.53 401.65 712.28 C 391.03 693.46 382.57 673.24 378.33 652.00 C 372.93 627.13 371.81 601.44 373.93 576.12 C 375.13 568.35 375.72 560.45 378.06 552.91 C 393.03 562.95 407.75 573.41 422.34 583.99 C 422.25 596.76 421.99 609.58 423.84 622.26 C 428.22 658.51 442.89 693.52 465.84 721.95 C 469.12 711.32 472.92 700.80 475.54 690.00 C 474.15 686.39 471.71 683.31 469.94 679.89 C 464.44 669.77 459.43 659.31 456.06 648.27 C 446.73 621.67 447.79 592.70 452.61 565.30 C 453.25 560.10 455.22 555.15 455.68 549.93 C 407.62 534.87 359.81 519.00 311.74 503.99 M 889.92 524.89 C 888.21 526.18 885.45 527.37 886.27 530.02 C 887.35 536.29 889.10 542.44 890.10 548.74 C 898.77 593.59 895.91 640.61 881.88 684.09 C 867.65 728.54 840.97 768.26 808.09 801.08 C 801.72 807.33 795.55 813.83 788.62 819.48 C 782.81 804.65 778.54 789.27 773.02 774.33 C 772.44 772.40 771.18 769.66 773.17 768.16 C 797.58 746.89 816.61 719.61 828.90 689.70 C 845.24 648.68 849.48 603.22 842.76 559.70 C 830.74 567.42 819.32 576.05 807.47 584.05 C 809.70 607.34 807.93 631.08 801.29 653.56 C 793.27 681.36 779.16 707.68 759.15 728.71 C 756.42 719.88 752.92 711.31 750.34 702.43 C 749.59 700.24 748.67 698.11 747.66 696.04 C 736.98 709.41 725.92 722.76 711.99 732.91 C 717.02 740.22 722.48 747.22 727.52 754.52 C 752.42 788.49 776.85 822.82 801.93 856.65 C 827.68 836.30 850.34 812.21 870.00 785.97 C 893.79 754.13 912.99 718.31 922.33 679.49 C 929.72 650.26 934.46 620.18 933.73 589.96 C 933.66 560.73 927.68 531.89 919.41 503.96 C 909.28 510.49 899.86 518.07 889.92 524.89 M 494.36 764.52 C 484.37 777.91 474.94 791.71 465.09 805.20 C 455.81 818.52 445.89 831.39 436.89 844.90 C 450.51 834.95 463.69 824.40 477.20 814.29 C 503.53 794.14 530.05 774.21 556.22 753.85 C 547.99 751.22 540.17 747.51 532.57 743.43 C 527.19 740.45 522.33 736.61 516.86 733.78 C 508.74 743.54 501.91 754.31 494.36 764.52 M 566.17 760.24 C 523.80 792.19 481.31 824.00 438.92 855.92 C 434.48 859.43 428.82 862.18 426.53 867.68 C 422.40 876.39 418.01 885.00 414.43 893.95 C 452.53 918.70 494.97 937.03 539.39 946.83 C 590.97 958.37 645.13 957.04 696.42 944.64 C 737.19 934.79 776.53 918.47 811.74 895.61 C 813.32 894.78 812.59 892.75 812.23 891.45 C 809.37 883.12 806.18 874.91 803.38 866.57 C 802.77 864.40 801.32 862.67 799.55 861.36 C 753.57 827.71 707.63 794.01 661.64 760.38 C 659.72 758.57 657.03 759.32 654.75 759.77 C 628.86 765.84 601.56 766.29 575.59 760.41 C 572.52 760.08 568.91 757.99 566.17 760.24 Z" />
<path fill="#296334" opacity="1.00" d=" M 923.59 248.67 C 925.22 247.81 926.75 246.39 928.71 246.37 C 932.12 248.67 934.86 251.85 937.70 254.81 C 928.89 271.35 921.41 288.59 912.23 304.92 C 909.83 302.62 906.92 300.65 905.23 297.75 C 905.40 294.41 908.70 291.93 908.56 288.54 C 904.73 284.42 900.22 281.03 896.11 277.20 C 893.45 278.71 890.99 280.69 888.04 281.60 C 884.84 280.17 882.65 277.13 880.02 274.89 C 894.34 265.83 909.23 257.69 923.59 248.67 M 906.45 270.84 C 909.06 273.43 911.66 276.04 914.21 278.69 C 917.82 273.09 920.52 266.97 923.02 260.81 C 917.32 263.84 911.73 267.11 906.45 270.84 Z" />
<path fill="#296334" opacity="1.00" d=" M 303.83 262.13 C 307.28 258.85 310.54 255.31 314.40 252.49 C 317.90 252.34 319.51 256.88 321.79 259.03 C 318.20 262.95 314.15 266.39 310.02 269.72 C 307.93 267.21 305.72 264.79 303.83 262.13 Z" />
<path fill="#296334" opacity="1.00" d=" M 269.79 266.70 C 270.93 265.24 272.33 264.03 273.84 262.97 C 276.34 265.10 278.64 267.45 280.78 269.94 C 276.95 274.38 272.41 278.17 268.76 282.77 C 267.91 283.65 268.33 285.06 269.18 285.78 C 271.13 288.10 273.58 289.93 276.00 291.74 C 278.90 288.83 281.08 285.05 284.78 283.06 C 287.09 285.18 289.31 287.41 291.18 289.93 C 288.72 292.86 286.26 295.81 283.43 298.39 C 285.93 301.84 289.16 304.62 292.25 307.52 C 296.77 302.69 301.02 297.59 305.92 293.14 C 308.36 295.27 310.75 297.47 312.87 299.93 C 306.31 307.22 299.69 314.44 292.82 321.43 C 284.97 314.87 277.71 307.66 270.39 300.53 C 264.60 295.58 259.13 290.28 253.81 284.84 C 258.25 278.05 264.74 272.99 269.79 266.70 Z" />
<path fill="#296334" opacity="1.00" d=" M 922.12 315.37 C 935.48 303.43 948.46 291.07 962.04 279.38 C 964.46 281.55 966.63 284.00 968.21 286.85 C 962.45 292.91 955.88 298.08 949.84 303.84 C 942.55 309.94 936.17 317.20 928.27 322.53 C 926.19 320.16 923.64 318.16 922.12 315.37 Z" />
<path fill="#296334" opacity="1.00" d=" M 940.85 337.04 C 955.16 326.28 969.80 315.97 984.11 305.22 C 986.34 307.85 988.63 310.50 990.25 313.58 C 991.20 314.94 989.96 316.33 989.47 317.59 C 984.34 327.43 979.35 337.34 974.42 347.29 C 983.73 341.55 991.72 333.85 1001.25 328.45 C 1003.08 331.01 1004.95 333.55 1006.61 336.23 C 998.14 342.92 989.18 348.94 980.63 355.52 C 974.79 359.75 969.06 364.16 962.97 368.01 C 961.02 365.39 958.83 362.90 957.39 359.95 C 957.45 357.20 959.29 354.91 960.36 352.47 C 964.84 343.35 970.07 334.57 973.95 325.16 C 964.85 331.70 955.92 338.46 946.81 344.97 C 944.35 342.70 942.42 339.96 940.85 337.04 Z" />
<path fill="#296334" opacity="1.00" d=" M 220.30 326.19 C 222.22 323.47 224.12 320.69 226.68 318.52 C 238.14 327.36 249.67 336.12 261.18 344.91 C 266.40 339.82 269.25 332.70 274.82 327.98 C 277.23 329.79 279.62 331.62 281.93 333.56 C 279.57 338.12 276.12 341.97 273.07 346.07 C 269.86 350.28 266.89 354.69 263.50 358.77 C 261.25 357.72 259.29 356.19 257.39 354.62 C 251.20 349.76 244.71 345.31 238.62 340.34 C 232.62 335.48 226.01 331.40 220.30 326.19 Z" />
<path fill="#296334" opacity="1.00" d=" M 1011.17 360.63 C 1013.95 359.65 1017.22 355.77 1020.12 357.87 C 1025.34 367.05 1030.34 376.38 1035.54 385.58 C 1036.17 387.00 1037.56 388.72 1036.35 390.23 C 1033.97 391.86 1031.38 393.25 1028.56 393.90 C 1026.44 390.24 1024.61 386.40 1022.20 382.92 C 1014.43 386.67 1007.20 391.42 999.50 395.32 C 994.18 397.99 989.33 401.56 983.80 403.78 C 982.08 400.73 980.07 397.79 979.01 394.42 C 991.51 387.21 1004.18 380.29 1016.83 373.35 C 1015.64 368.79 1011.65 365.39 1011.17 360.63 Z" />
<path fill="#296334" opacity="1.00" d=" M 197.03 363.75 C 198.74 364.26 200.43 364.85 201.95 365.81 C 212.96 372.46 223.85 379.33 235.02 385.74 C 239.04 379.92 242.05 373.50 245.96 367.62 C 249.00 368.87 251.89 370.47 254.60 372.35 C 249.43 381.64 243.97 390.78 238.31 399.78 C 228.88 393.72 219.12 388.19 209.63 382.24 C 203.87 378.55 197.70 375.50 192.20 371.43 C 193.82 368.87 195.45 366.33 197.03 363.75 Z" />
<path fill="#296334" opacity="1.00" d=" M 175.95 405.44 C 192.28 406.98 208.48 409.88 224.80 411.66 C 226.89 411.91 228.95 412.36 231.02 412.71 C 230.65 416.30 228.86 419.47 227.11 422.55 C 223.97 421.96 220.81 421.48 217.62 421.35 C 215.35 426.71 212.02 431.76 211.13 437.60 C 213.44 439.54 215.69 441.53 218.07 443.37 C 216.87 446.59 215.31 449.66 214.12 452.88 C 211.16 451.73 209.07 449.21 206.59 447.33 C 194.74 437.12 182.64 427.21 171.03 416.73 C 172.44 412.87 174.25 409.18 175.95 405.44 M 186.62 417.01 C 191.44 421.49 196.41 425.85 201.87 429.54 C 203.38 426.21 204.89 422.88 205.98 419.40 C 199.55 418.44 193.13 417.25 186.62 417.01 Z" />
<path fill="#296334" opacity="1.00" d=" M 1046.48 440.58 C 1050.33 439.37 1054.11 437.85 1058.11 437.16 C 1059.77 443.58 1062.36 449.74 1063.85 456.19 C 1065.18 462.27 1061.99 468.82 1056.43 471.56 C 1052.59 473.69 1048.03 473.51 1043.89 472.52 C 1042.35 475.83 1041.07 479.80 1037.53 481.51 C 1032.02 484.43 1024.74 485.51 1019.33 481.81 C 1015.01 479.13 1013.13 474.17 1011.63 469.57 C 1010.06 464.25 1007.97 459.07 1006.99 453.59 C 1020.07 449.03 1033.34 444.99 1046.48 440.58 M 1041.19 452.73 C 1041.36 456.00 1042.16 459.30 1043.97 462.08 C 1046.85 465.08 1052.62 463.63 1053.72 459.64 C 1054.02 456.27 1052.48 453.14 1051.53 450.01 C 1047.94 450.32 1044.59 451.66 1041.19 452.73 M 1019.36 460.07 C 1020.24 464.03 1021.12 468.13 1023.37 471.58 C 1026.76 475.48 1035.13 472.46 1034.45 467.03 C 1033.72 463.34 1032.15 459.88 1031.18 456.25 C 1027.15 457.23 1023.21 458.55 1019.36 460.07 Z" />
<path fill="#296334" opacity="1.00" d=" M 151.94 471.09 C 152.71 464.40 155.84 458.03 160.87 453.52 C 163.83 455.29 166.77 457.11 169.59 459.11 C 167.27 461.75 164.54 464.19 163.27 467.56 C 161.89 470.43 162.03 473.68 162.20 476.77 C 163.96 477.41 166.14 478.22 167.72 476.71 C 174.33 471.81 179.16 464.11 187.43 461.74 C 194.27 460.17 202.56 463.79 205.21 470.48 C 207.70 480.43 203.43 491.13 195.97 497.87 C 192.81 496.30 189.95 494.23 187.21 492.03 C 191.30 487.94 196.08 483.24 195.72 476.96 C 196.25 472.95 191.34 469.76 187.92 471.87 C 182.16 475.74 178.26 481.77 172.71 485.88 C 167.33 489.26 159.73 488.37 155.39 483.69 C 152.08 480.47 151.19 475.51 151.94 471.09 Z" />
<path fill="#296334" opacity="1.00" d=" M 1020.77 501.78 C 1038.44 498.26 1056.00 494.20 1073.65 490.61 C 1075.63 500.32 1077.86 509.99 1079.70 519.73 C 1076.53 520.59 1073.31 521.25 1070.07 521.68 C 1068.56 515.32 1067.53 508.86 1066.06 502.49 C 1062.40 503.15 1058.77 503.88 1055.14 504.58 C 1055.44 508.83 1056.38 513.01 1057.43 517.14 C 1054.22 517.75 1051.02 518.42 1047.81 518.94 C 1046.90 515.00 1045.94 511.08 1045.17 507.12 C 1041.09 507.67 1037.08 508.65 1033.06 509.45 C 1033.33 516.19 1036.14 522.51 1036.62 529.23 C 1033.37 529.90 1030.12 530.52 1026.82 530.77 C 1024.94 521.08 1023.07 511.38 1020.77 501.78 Z" />
<path fill="#296334" opacity="1.00" d=" M 570.18 541.46 C 579.85 539.61 589.92 542.18 598.47 546.79 C 603.22 549.22 607.47 552.47 611.88 555.45 C 621.89 546.27 635.46 541.36 649.00 541.55 C 662.01 541.59 674.93 544.81 686.67 550.35 C 689.29 571.49 691.78 592.65 694.39 613.79 C 695.30 620.62 696.27 627.46 696.53 634.35 C 638.72 634.37 580.91 634.32 523.10 634.36 C 523.60 628.93 524.96 623.65 526.21 618.36 C 530.89 596.94 535.37 575.48 540.22 554.10 C 540.54 552.67 542.19 552.18 543.26 551.40 C 551.63 546.74 560.66 542.96 570.18 541.46 M 557.46 561.34 C 556.01 562.31 554.03 563.14 553.71 565.07 C 550.88 577.75 548.57 590.55 545.75 603.23 C 545.29 605.31 545.22 607.45 545.18 609.58 C 563.88 601.40 585.98 603.36 603.76 613.00 C 604.14 602.34 603.60 591.67 603.72 581.00 C 603.68 577.52 603.77 574.01 603.23 570.56 C 596.98 562.50 587.17 557.42 577.04 556.53 C 570.22 556.16 563.43 558.15 557.46 561.34 M 619.60 569.58 C 618.33 572.54 618.64 575.86 618.51 579.01 C 618.70 590.48 617.99 601.94 618.31 613.41 C 628.99 607.01 641.61 604.06 654.02 604.51 C 662.14 604.35 669.86 607.11 677.54 609.38 C 675.90 593.78 673.54 578.24 671.48 562.69 C 663.56 558.02 654.12 555.90 644.97 556.50 C 635.16 557.25 626.23 562.51 619.60 569.58 Z" />
<path fill="#296334" opacity="1.00" d=" M 135.81 555.10 C 154.05 551.50 172.23 547.57 190.48 544.03 C 190.47 547.54 190.52 551.08 189.97 554.56 C 186.76 555.19 183.58 555.94 180.37 556.59 C 179.80 562.48 179.03 568.38 179.20 574.32 C 182.04 575.26 184.83 576.37 187.65 577.40 C 187.55 581.08 187.37 584.76 187.16 588.44 C 169.82 581.31 152.23 574.86 134.89 567.75 C 134.65 563.50 135.47 559.31 135.81 555.10 M 148.86 562.71 C 155.35 564.98 161.62 567.86 168.19 569.89 C 168.53 566.11 168.68 562.32 168.76 558.54 C 162.13 559.95 155.47 561.21 148.86 562.71 Z" />
<path fill="#296334" opacity="1.00" d=" M 1030.82 552.25 C 1048.67 550.99 1066.52 549.82 1084.36 548.54 C 1084.67 552.49 1084.96 556.47 1084.72 560.44 C 1077.50 564.16 1070.83 568.80 1063.79 572.83 C 1060.47 574.87 1057.07 576.79 1054.00 579.20 C 1064.75 578.42 1075.51 577.40 1086.29 577.15 C 1086.44 580.24 1086.63 583.34 1087.40 586.35 C 1081.04 587.97 1074.40 587.28 1067.94 588.18 C 1056.58 588.55 1045.29 590.06 1033.95 590.49 C 1032.15 587.47 1033.02 583.41 1032.56 579.97 C 1043.42 573.23 1054.44 566.74 1065.38 560.12 C 1054.12 560.42 1042.88 561.27 1031.67 562.31 C 1030.82 559.02 1030.63 555.63 1030.82 552.25 Z" />
<path fill="#296334" opacity="1.00" d=" M 512.27 587.17 C 515.78 587.83 519.20 588.86 522.66 589.75 C 518.32 608.09 513.45 626.29 509.11 644.63 C 516.38 645.78 523.69 644.61 531.00 644.80 C 591.30 644.74 651.60 644.94 711.90 644.70 C 711.15 637.38 709.24 630.25 708.06 623.00 C 706.19 611.86 703.31 600.88 702.14 589.63 C 705.46 588.65 708.82 587.68 712.28 587.33 C 715.32 603.42 718.75 619.44 721.51 635.59 C 722.92 642.20 724.53 648.79 725.36 655.51 C 648.94 655.52 572.53 655.58 496.11 655.47 C 496.36 653.32 496.62 651.18 497.17 649.09 C 502.33 628.48 507.01 607.75 512.27 587.17 Z" />
<path fill="#296334" opacity="1.00" d=" M 177.38 600.68 C 180.65 600.52 183.92 600.47 187.20 600.49 C 187.31 610.94 187.89 621.39 188.17 631.84 C 170.24 632.49 152.32 633.34 134.38 633.69 C 134.22 630.43 134.20 627.17 134.23 623.92 C 148.78 623.44 163.32 622.68 177.88 622.50 C 177.97 615.22 177.32 607.96 177.38 600.68 Z" />
<path fill="#296334" opacity="1.00" d=" M 1032.63 612.33 C 1050.59 611.96 1068.50 613.66 1086.46 613.66 C 1086.60 616.94 1086.52 620.23 1086.38 623.52 C 1073.25 623.70 1060.14 622.51 1047.01 622.44 C 1042.16 622.42 1037.34 621.78 1032.50 621.63 C 1032.59 618.53 1032.65 615.43 1032.63 612.33 Z" />
<path fill="#296334" opacity="1.00" d=" M 1028.84 661.45 C 1029.68 655.10 1029.91 648.65 1031.51 642.42 C 1043.87 643.83 1056.18 645.60 1068.55 646.95 C 1073.90 647.72 1079.31 648.13 1084.58 649.39 C 1084.31 652.49 1083.92 655.57 1083.41 658.64 C 1068.83 657.38 1054.36 655.01 1039.80 653.59 C 1038.99 660.63 1037.97 667.64 1037.33 674.70 C 1034.04 674.44 1030.75 674.28 1027.46 674.18 C 1027.55 669.90 1028.38 665.69 1028.84 661.45 Z" />
<path fill="#296334" opacity="1.00" d=" M 184.23 679.59 C 187.35 678.65 190.58 678.22 193.83 678.10 C 195.84 687.46 198.09 696.80 199.71 706.23 L 199.13 707.06 C 187.89 709.30 176.70 711.81 165.48 714.17 C 159.38 715.11 153.50 717.20 147.34 717.80 C 145.12 708.17 142.86 698.50 141.31 688.74 C 144.45 687.90 147.66 687.35 150.92 687.28 C 152.49 693.51 153.13 699.96 155.09 706.10 C 158.67 705.43 162.26 704.72 165.79 703.81 C 165.21 699.69 164.26 695.62 164.08 691.45 C 167.06 690.77 170.06 690.21 173.03 689.53 C 174.09 693.52 175.04 697.54 175.83 701.60 C 179.88 700.92 183.88 700.00 187.90 699.21 C 187.30 692.57 185.36 686.15 184.23 679.59 Z" />
<path fill="#296334" opacity="1.00" d=" M 1024.85 690.46 C 1034.88 692.89 1044.81 695.76 1054.82 698.34 C 1062.06 700.68 1069.66 701.85 1076.74 704.69 C 1073.43 713.53 1073.55 724.38 1066.10 731.11 C 1056.26 741.06 1039.12 739.70 1028.70 731.38 C 1021.07 725.62 1018.13 714.94 1020.59 705.87 C 1021.98 700.73 1023.00 695.47 1024.85 690.46 M 1030.55 715.53 C 1032.67 723.34 1040.93 728.47 1048.84 727.88 C 1055.78 727.44 1061.82 722.06 1063.52 715.38 C 1063.74 714.01 1065.37 711.52 1063.17 711.04 C 1052.75 708.06 1042.25 705.32 1031.74 702.66 C 1030.15 706.72 1029.72 711.24 1030.55 715.53 Z" />
<path fill="#296334" opacity="1.00" d=" M 168.55 735.58 C 176.02 729.60 186.37 727.02 195.69 729.48 C 203.06 731.26 208.66 737.47 211.47 744.29 C 213.43 749.57 215.37 754.88 216.74 760.36 C 206.27 764.19 195.70 767.70 185.20 771.45 C 178.69 773.43 172.48 776.42 165.78 777.77 C 163.93 771.44 161.46 765.30 159.74 758.93 C 158.41 750.36 161.66 741.00 168.55 735.58 M 172.30 747.14 C 168.56 752.59 169.64 759.69 172.22 765.38 C 182.79 761.65 193.38 757.98 203.99 754.36 C 203.59 750.46 201.91 746.66 199.13 743.87 C 191.88 736.28 177.57 738.08 172.30 747.14 Z" />
<path fill="#296334" opacity="1.00" d=" M 1009.15 744.27 C 1020.84 748.03 1032.05 753.15 1043.62 757.26 C 1048.85 759.45 1054.30 761.11 1059.38 763.66 C 1055.90 772.67 1052.79 781.83 1049.23 790.80 C 1046.02 790.79 1043.12 789.29 1040.17 788.27 C 1041.18 781.73 1044.46 775.78 1046.69 769.59 C 1043.41 767.90 1039.95 766.60 1036.58 765.15 C 1034.29 768.75 1033.32 772.97 1031.34 776.72 C 1028.58 775.65 1025.84 774.58 1023.09 773.54 C 1023.21 769.30 1025.38 765.54 1026.74 761.62 C 1022.84 759.98 1018.89 758.48 1014.97 756.90 C 1012.71 762.96 1010.20 768.92 1008.06 775.03 C 1004.95 774.64 1002.03 773.53 999.15 772.40 C 999.35 768.32 1001.34 764.68 1002.75 760.94 C 1004.87 755.38 1007.06 749.85 1009.15 744.27 Z" />
<path fill="#296334" opacity="1.00" d=" M 483.54 852.93 C 485.80 853.23 488.16 853.38 490.23 854.46 C 498.24 858.43 505.04 864.70 509.92 872.17 C 511.96 875.18 512.60 878.83 514.05 882.11 C 515.88 884.35 519.06 884.41 521.65 885.12 C 521.26 875.58 517.61 866.47 512.97 858.24 C 524.20 857.69 534.82 863.64 542.49 871.48 C 547.97 876.43 551.86 882.90 554.49 889.75 C 555.19 891.30 555.61 893.06 556.75 894.37 C 558.76 894.96 560.86 895.22 562.93 895.56 C 562.67 890.66 562.02 885.67 559.81 881.23 C 557.57 876.27 553.97 872.11 551.50 867.28 C 562.14 867.27 573.60 869.92 581.41 877.60 C 585.31 881.23 588.19 885.81 590.77 890.44 C 593.20 895.34 595.95 900.24 596.84 905.72 C 591.08 912.38 583.33 917.24 575.09 920.19 C 565.18 923.22 554.51 921.49 544.93 918.11 C 542.75 917.24 540.26 916.63 538.86 914.59 C 546.68 911.98 555.44 908.26 559.02 900.26 C 556.52 899.76 553.97 899.07 551.41 899.40 C 546.43 903.08 541.21 906.74 535.05 908.10 C 525.50 909.86 515.61 908.57 506.54 905.25 C 502.85 903.72 498.49 903.12 495.82 899.87 C 503.34 897.27 512.22 896.21 517.85 890.07 C 515.33 889.13 512.91 887.51 510.18 887.44 C 506.23 888.73 502.57 890.87 498.49 891.81 C 489.20 894.60 479.31 892.10 470.66 888.36 C 467.52 886.99 464.29 885.53 461.96 882.93 C 464.54 880.89 467.94 881.04 470.96 880.12 C 473.95 879.24 476.90 878.10 479.62 876.57 C 479.65 876.26 479.72 875.63 479.75 875.32 C 476.93 873.13 473.76 870.95 470.03 871.08 C 460.81 871.01 453.28 862.98 450.83 854.60 C 458.14 854.52 466.44 853.49 472.51 858.51 C 475.63 860.77 476.26 864.73 477.88 867.97 C 480.20 869.67 482.85 870.86 485.44 872.09 C 484.75 865.70 483.27 859.39 483.54 852.93 Z" />
<path fill="#296334" opacity="1.00" d=" M 709.69 882.79 C 713.73 868.68 726.10 858.24 739.67 853.64 C 739.98 860.35 738.98 866.96 738.14 873.58 C 741.30 871.89 746.06 871.07 746.77 866.89 C 747.92 862.29 751.62 858.27 756.33 857.27 C 761.75 855.92 767.41 856.21 772.93 856.60 C 770.66 862.51 766.53 867.83 760.99 870.99 C 757.51 872.97 753.36 872.57 749.61 873.55 C 747.55 874.48 745.62 875.68 743.63 876.74 C 743.56 877.13 743.42 877.90 743.35 878.29 C 748.81 881.01 754.70 882.68 760.68 883.80 C 760.55 887.15 756.95 888.06 754.49 889.34 C 745.56 893.55 735.32 896.39 725.50 893.80 C 721.14 892.72 717.21 890.41 712.89 889.28 C 710.14 889.46 707.73 890.96 705.29 892.07 C 710.99 897.28 718.63 899.18 725.91 901.00 C 727.44 901.08 726.63 903.39 725.47 903.53 C 715.65 908.08 704.84 911.30 693.92 910.64 C 686.43 910.41 679.47 906.82 673.61 902.37 C 671.19 900.16 667.79 901.65 664.94 901.82 C 665.06 905.88 668.67 908.12 671.55 910.33 C 675.62 913.38 680.58 914.75 685.14 916.89 C 675.83 921.47 665.44 924.42 654.99 923.43 C 643.76 921.98 633.68 915.55 626.29 907.15 C 630.08 894.66 636.72 882.35 647.72 874.86 C 655.04 870.80 663.61 868.84 671.97 869.32 C 666.52 877.52 660.20 886.12 660.32 896.45 C 662.49 896.65 666.01 897.88 667.23 895.37 C 669.94 888.77 672.72 881.97 677.61 876.64 C 682.25 871.61 687.31 866.70 693.59 863.77 C 698.77 861.48 704.28 859.64 710.00 859.48 C 709.41 863.49 706.36 866.53 705.30 870.40 C 703.82 875.81 701.37 881.10 701.74 886.84 C 704.63 886.44 708.52 885.96 709.69 882.79 Z" />
<path fill="#296334" opacity="1.00" d=" M 610.20 868.86 C 614.72 867.31 620.19 870.95 619.44 875.95 C 619.59 881.59 611.42 884.02 607.85 880.07 C 604.76 876.75 606.03 870.73 610.20 868.86 Z" />
<path fill="#296334" opacity="1.00" d=" M 288.41 897.60 C 296.92 895.16 306.92 901.90 306.70 911.02 C 307.61 918.82 300.97 926.64 293.04 926.56 C 286.67 927.20 280.33 922.84 278.23 916.87 C 275.39 909.07 280.08 899.36 288.41 897.60 Z" />
<path fill="#296334" opacity="1.00" d=" M 930.33 902.25 C 939.56 898.93 950.87 907.05 949.55 917.03 C 949.78 926.04 940.00 933.08 931.45 930.71 C 922.69 928.83 917.78 918.27 921.36 910.20 C 923.13 906.48 926.45 903.59 930.33 902.25 Z" />
<path fill="#296334" opacity="1.00" d=" M 540.17 1023.86 C 542.10 1024.31 544.04 1024.74 545.99 1025.21 C 544.68 1034.21 541.79 1042.88 539.75 1051.73 C 538.15 1056.63 537.54 1061.81 535.76 1066.66 C 533.11 1066.12 530.51 1065.39 527.90 1064.74 C 529.17 1054.99 532.61 1045.68 534.74 1036.10 C 530.96 1037.11 527.16 1038.14 523.26 1038.56 C 524.04 1035.87 523.47 1031.47 527.06 1030.90 C 531.91 1029.56 536.39 1027.20 540.17 1023.86 Z" />
<path fill="#296334" opacity="1.00" d=" M 665.12 1033.03 C 670.31 1029.31 677.88 1028.13 683.45 1031.68 C 689.40 1034.97 689.27 1044.02 684.35 1048.19 C 687.34 1049.92 690.45 1052.05 691.59 1055.50 C 693.00 1059.75 692.43 1065.00 689.33 1068.40 C 684.77 1072.85 677.63 1073.91 671.69 1072.08 C 666.32 1070.33 662.79 1064.65 663.49 1059.07 C 663.23 1055.66 665.83 1053.12 667.95 1050.83 C 665.42 1048.65 662.41 1046.48 661.68 1043.01 C 661.41 1039.48 662.12 1035.28 665.12 1033.03 M 672.43 1037.23 C 669.31 1038.61 669.48 1044.09 672.48 1045.56 C 674.72 1045.76 677.64 1046.29 679.24 1044.28 C 679.81 1042.15 680.35 1039.14 678.31 1037.63 C 676.75 1036.22 674.18 1036.23 672.43 1037.23 M 674.55 1053.55 C 670.41 1056.39 671.32 1064.33 676.34 1065.79 C 679.14 1066.91 683.17 1064.83 683.44 1061.68 C 683.63 1059.39 683.66 1056.80 682.02 1055.01 C 680.38 1052.56 677.03 1053.17 674.55 1053.55 Z" />
<path fill="#296334" opacity="1.00" d=" M 569.77 1036.64 C 572.84 1031.55 579.50 1029.96 585.02 1031.13 C 591.29 1032.42 595.82 1038.59 595.84 1044.90 C 596.04 1052.39 595.53 1060.28 591.91 1067.01 C 587.58 1074.44 576.65 1076.36 569.92 1071.13 C 567.05 1068.83 566.10 1065.08 566.36 1061.56 C 568.65 1061.56 570.95 1061.59 573.25 1061.58 C 574.99 1063.73 576.26 1067.61 579.76 1066.80 C 584.46 1066.18 585.31 1060.47 586.10 1056.64 C 579.90 1061.79 569.89 1057.70 567.89 1050.25 C 566.95 1045.69 567.02 1040.59 569.77 1036.64 M 579.46 1038.38 C 577.53 1038.94 576.37 1041.14 576.13 1043.06 C 575.51 1046.24 575.41 1050.49 578.64 1052.33 C 580.81 1052.91 583.70 1053.15 585.04 1050.94 C 587.86 1047.37 587.86 1040.78 583.48 1038.39 C 582.16 1038.08 580.77 1038.08 579.46 1038.38 Z" />
<path fill="#296334" opacity="1.00" d=" M 618.13 1036.24 C 622.31 1032.74 628.21 1032.42 633.33 1033.54 C 638.05 1034.51 642.09 1039.03 641.47 1044.02 C 641.74 1047.48 639.16 1050.09 637.22 1052.63 C 645.12 1056.85 645.22 1069.20 637.91 1074.02 C 631.46 1077.90 621.71 1077.23 616.85 1071.11 C 612.61 1065.47 614.09 1056.58 620.27 1052.95 C 618.56 1051.33 616.39 1049.86 615.64 1047.55 C 615.01 1043.71 615.00 1039.04 618.13 1036.24 M 625.50 1048.66 C 627.51 1050.21 630.16 1048.89 632.32 1048.33 C 633.38 1045.86 633.40 1043.25 632.30 1040.80 C 630.35 1040.31 628.25 1039.12 626.26 1040.06 C 622.75 1041.28 622.49 1046.72 625.50 1048.66 M 626.57 1056.61 C 623.60 1057.64 622.89 1061.08 623.13 1063.87 C 622.99 1068.23 629.01 1071.22 632.36 1068.38 C 635.02 1066.80 634.86 1063.17 634.28 1060.55 C 633.56 1057.24 629.64 1055.48 626.57 1056.61 Z" />
</svg>
